<svg id="Layer_1" data-name="Layer 1" xmlns="http://www.w3.org/2000/svg" viewBox="0 0 269.6 64.74">
  <defs>
    <style>
      .cls-1 {
        fill: #e0bd02;
        opacity: 0.11;
      }
    </style>
  </defs>
  <title>streg</title>
  <g>
    <path class="cls-1" d="M11.68,6.06l2.87-.36-.36,0,2.31.52L8.84,2.36,17.38,7.1,9.36,2,18.49,8.7,10.84,2.22,19.58,13l-5-7.37,5.18,9.72L16.21,7.56l3.65,10.25L17.6,9.66l2.26,10.75L19,13.6a80.47,80.47,0,0,1,.68,15.81L19.53,32a38.27,38.27,0,0,0,0,6.77,11.18,11.18,0,0,0,2.41,5.74c2.08,2.46,5.51,3.78,8.6,4.34,7.49,1.37,15.53-.1,22.89-1.64,6.48-1.36,12.95-3.32,19.6-3.49h-.36l8.58.18-.36,0,8.27.81-.35,0c10.43,1.75,20.66,4.19,31,6.64s21,4.8,31.67,5.48A279,279,0,0,0,202.87,55c21.43-2.63,42.39-7.55,63.24-13a1.77,1.77,0,0,0-1-.88q-2-1.25-4.14-2.39c-1.38-.78-2.79-1.54-4.21-2.25a1.8,1.8,0,0,0-1.25-.36c-22.51,5.44-45.08,10-68.19,12-10.48.86-20.94,1.14-31.46,1a174.4,174.4,0,0,1-28.78-2.61c-10.59-1.91-21.05-4.42-31.65-6.31-4.78-.86-10.82-1.84-15.66-2.24a135.85,135.85,0,0,0-17.24,0h.36a42.89,42.89,0,0,0-10.15,1,57.4,57.4,0,0,1-13,.47,26.18,26.18,0,0,1-6-.61c-1.6-.44-3.46-.65-4.79-1.73-2.9-2.33-4.24-5.73-4.74-9.34a57.15,57.15,0,0,0-2-8.76c-.55-1.77-1.29-3.47-1.89-5.22L18.6,7.53a1.12,1.12,0,0,0-.54-.63A20.21,20.21,0,0,0,14.9,4.75c-1.71-1.1-3.42-2.27-5.23-3.22C6.73,0,3.64.42.53,1a1.88,1.88,0,0,0,1,.81C3,2.5,4.48,3.2,6,3.86S8.89,5.18,10.39,5.8A1.85,1.85,0,0,0,11.68,6.06Z"/>
    <path class="cls-1" d="M12.91,7.91l2.89-.34-.38,0,2.32.56L12.5,5l6.08,3.93-8.1-6,9.18,7.69L11.92,3.12,20.62,15l-5-8.15L20.7,17.4,17.05,8.94l3.62,11-2.39-8.76,2.29,11.41-1.22-9.11,1.06,11.8-.21-7.18A132.07,132.07,0,0,1,20,32.44c-.09,1.41-.17,2.82-.22,4.23a30.43,30.43,0,0,0,0,4.27,10.84,10.84,0,0,0,2.46,5.76,14.29,14.29,0,0,0,7.06,4c6.33,1.75,13,.91,19.41-.24C55.44,49.23,62,47.23,68.7,46.17a52.19,52.19,0,0,1,9.69-.38,118.21,118.21,0,0,1,19.75,2.27c12.92,2.52,25.55,6.36,38.5,8.81a157.5,157.5,0,0,0,28.92,2.5,299.77,299.77,0,0,0,32.12-1.65c23.66-2.48,46.71-7.74,69.68-13.79a2,2,0,0,0-1-1c-1.38-1-2.77-1.94-4.19-2.86s-2.83-1.86-4.28-2.74a1.91,1.91,0,0,0-1.29-.49c-18.44,4.5-36.93,8.5-55.79,10.83-8.34,1-16.68,1.75-25.08,2.12q-9.47.55-18.94.25l-13-.46c-12-1-23.79-3.64-35.54-6.12s-24-5.22-36.06-5.12l-8.63.31-2.17-.15a40.06,40.06,0,0,0-6,1,67.3,67.3,0,0,1-13.65,1.35c-3.77-.07-7.63.08-11.23-1.3a9.75,9.75,0,0,1-4.13-3.31c-1.49-1.88-2-3.8-2.52-6.13l.06.35c-.87-7-2.66-14.1-4.13-21a1.91,1.91,0,0,0-.89-1q-1.39-1.12-2.82-2.19c-1.18-.9-2.38-1.78-3.58-2.65A16.84,16.84,0,0,0,10,1.91a7,7,0,0,0-2.67-.72,13.57,13.57,0,0,0-5.56.36,2,2,0,0,0,1,.92Q4.91,3.82,7.13,5.06c1.47.84,3,1.66,4.46,2.44A1.94,1.94,0,0,0,12.91,7.91Z"/>
    <path class="cls-1" d="M14.67,6.46l4.47.39-1.2-.49c4.66,3.41,3.28,10.41,2.34,15-.59,2.89-1,5.81-1.5,8.71a54.82,54.82,0,0,0-1,8.84A8.93,8.93,0,0,0,18.84,44c2.33,4.51,7,6.38,11.78,7.22,7.65,1.34,15.89-.47,23.3-2.3,3.81-1,7.58-2,11.39-3,1.65-.41,3.32-.77,5-1.09a46.2,46.2,0,0,1,13.49-.24c15.69,1.46,30.65,6.34,46,9.75A160.59,160.59,0,0,0,153.54,58a248.56,248.56,0,0,0,26,.22c30.34-1,60.14-7.93,89.33-15.76.67-.18-1-1.33-1.49-1.2C238.29,49,208.78,55.58,178.56,56.82a226.45,226.45,0,0,1-33.65-1Q137,54.8,129.17,53c-7.7-1.75-15.33-3.83-23-5.64q-7.64-1.87-15.4-3.11A110.51,110.51,0,0,0,74.91,43a39.59,39.59,0,0,0-5.82.66C59,45.57,49.33,49.62,39,50.24a30.43,30.43,0,0,1-11.73-1.38q-8-3-8.37-10.73c.06-1.55.16-3.11.29-4.66.21-2.46.67-4.82,1.12-7.25.68-3.66,1.8-7.29,2.1-11,.24-3,.31-7.17-2.68-8.86-2.05-1.15-4-1.11-6.25-1-.37,0-.32.35-.2.57S14.37,6.48,14.67,6.46Z"/>
    <path class="cls-1" d="M14.46,12.22l5.77,1.32L18.76,12a9.82,9.82,0,0,1,1.81,6.4l0,2.51c-.09,2.85-.64,5.73-.94,8.58-.37,3.38-1,6.72-1.43,10.09a29.76,29.76,0,0,0-.42,7c.82,6.2,7,9.16,12.51,10.2,8.44,1.62,17.45-.51,25.63-2.61,4.71-1.21,9.4-2.71,14.2-3.49a52.25,52.25,0,0,1,13.58-.29c15.66,1.42,30.53,6.34,45.82,9.67a157.65,157.65,0,0,0,23.76,3.63,256.6,256.6,0,0,0,32.34-.17c28.29-1.83,55.72-7.95,83-15.24.81-.21-1.43-2.62-1.95-2.48C249.88,50.17,233,54.25,215.86,57a338.18,338.18,0,0,1-38.64,3.86,191,191,0,0,1-41.78-2.41c-7.75-1.39-15.38-3.33-23-5.16-10.07-2.42-20.2-4.77-30.56-5.48a53.63,53.63,0,0,0-13.36.4c-4.75.82-9.37,2.2-14.07,3.26a84.78,84.78,0,0,1-14,2.07,29.55,29.55,0,0,1-13.48-2,11.05,11.05,0,0,1-6.54-5.74,7.85,7.85,0,0,1-1-4.73A56.34,56.34,0,0,1,20.69,29c.48-2.28,1-4.54,1.35-6.85.49-3.49.66-7.4-2.14-10a9.48,9.48,0,0,0-2.43-1.76c-1.78-.77-3.11-.46-5-.27C11.83,10.24,13.83,12.28,14.46,12.22Z"/>
    <path class="cls-1" d="M12.1,8.38,15,8,14.57,8l2.34.56L14,6.6l3.73,2.6L8.19,1l12.37,15.2L14.44,5.48,20,17.72,16.11,7.47l3.94,12.79L17.57,9.61,20,22.93,18.87,11.82a87.87,87.87,0,0,1,.76,18.46c-.08,1.51-.17,3-.29,4.53-.1,1.93-.18,3.87-.12,5.81A11,11,0,0,0,27.1,50.9c6.28,2.05,12.75,1.35,19.16.36,6.76-1.06,13.35-3,20.06-4.35a38.08,38.08,0,0,1,7.22-.78,113.54,113.54,0,0,1,20,1.73c14.3,2.49,28.15,7,42.44,9.51,18,3.14,36.41,2.91,54.61,1.51,25.78-2,51.07-7.92,76-14.5a2.49,2.49,0,0,0-1-1.15c-1.49-1.2-3-2.37-4.52-3.51s-3-2.28-4.61-3.38a2.47,2.47,0,0,0-1.39-.68c-16.35,3.94-32.72,7.58-49.39,9.88a318.21,318.21,0,0,1-37.5,3c-12.54.23-25.08,0-37.47-2C121.37,45.1,112.21,43,103,41.2a231.6,231.6,0,0,0-24-3.78,123.07,123.07,0,0,0-17,0,11.8,11.8,0,0,0-5,.2c-3.07.46-6.08,1.05-9.18,1.28s-6.23,0-9.39,0a20.75,20.75,0,0,1-7.67-1.35,10.26,10.26,0,0,1-4.45-4.13c-1.72-2.79-1.85-6.27-2.6-9.39-.43-1.8-.77-3.66-1.31-5.43Q20.76,14.26,19.07,10l-.18-.38a21.26,21.26,0,0,0-2.55-2.38Q13.79,5,11.2,2.87A13.43,13.43,0,0,0,8,.66C5.46-.43,2.71.06.09.51a2.48,2.48,0,0,0,1.1,1.07Q3.5,3.22,5.89,4.76c1.57,1,3.17,2.06,4.79,3A2.38,2.38,0,0,0,12.1,8.38Z"/>
    <path class="cls-1" d="M12,6.76,14.9,6.4h-.39l2.31.52L8.56,2.31l9.07,5.4L9,1.8l9.78,7.51L10.42,1.88,19.8,13.63,14.33,5.31,20,16,16,7.25l4,11.2L17.46,9.33,20,21.05l-1.29-9.57a76.58,76.58,0,0,1,1.12,16.81c0,1.49-.1,3-.19,4.45-.07,1.94-.12,3.87,0,5.8a11.08,11.08,0,0,0,7.73,10.19c6.12,2.08,12.48,1.49,18.77.61,6.75-1,13.34-2.82,20-4.1a38.09,38.09,0,0,1,7.22-.79,114.63,114.63,0,0,1,20,1.66c14.29,2.43,28.14,6.92,42.42,9.4,18,3.13,36.4,2.92,54.61,1.56,25.79-1.93,51.1-7.82,76-14.36a2.07,2.07,0,0,0-1-1q-2.21-1.45-4.47-2.8t-4.56-2.67a2.1,2.1,0,0,0-1.35-.47c-16.34,3.93-32.73,7.67-49.41,9.87a331.51,331.51,0,0,1-37.51,3,229.8,229.8,0,0,1-33.49-1.41c-10.65-1.35-21.11-3.94-31.64-6a209.51,209.51,0,0,0-24-3.76,119.15,119.15,0,0,0-16.9,0l-2.19-.16q-3,.35-6,.87a30.15,30.15,0,0,1-6.13.76,78.08,78.08,0,0,1-8.24-.11A28.84,28.84,0,0,1,32.62,38a7.63,7.63,0,0,1-3.55-1.4A12,12,0,0,1,27,34.24c-1.82-2.4-2.17-5.05-2.72-7.92a74.5,74.5,0,0,0-1.85-7.53,27.23,27.23,0,0,0-1-2.74,21.51,21.51,0,0,0-2.57-8A28.54,28.54,0,0,0,13.67,4.2,35.14,35.14,0,0,0,8.36.82C5.69-.34,2.75.18,0,.66a2.16,2.16,0,0,0,1.12.91Q3.48,2.85,5.85,4.05t4.79,2.34A2.11,2.11,0,0,0,12,6.76Z"/>
    <path class="cls-1" d="M13,9.94l4.82.28-1.56-1L19,11.25l-4.44-4.2,5.49,6L16.17,8.37l3.7,5.84-2.45-4.14,2.75,11.66-.56-4.83c.36,7.55-.45,14.28-1.1,21.5a33.6,33.6,0,0,0-.2,5.4,11,11,0,0,0,2.53,5.74,15.18,15.18,0,0,0,5.55,3.57c3.5,1.41,8,1.6,11.65,1.36,2.8-.18,5.61-.52,8.38-1,7-1.12,13.7-3.31,20.59-4.75a36.18,36.18,0,0,1,6.87-.87l16.13,1q5.82.86,11.54,2.2c13,2.86,25.7,6.66,38.81,8.75a159.38,159.38,0,0,0,25,1.85A297.86,297.86,0,0,0,197.51,60c23.72-2.54,46.77-7.85,69.79-14,.29-.08-2.87-2.83-2.77-2.75-.48-.4-2.36-2.38-3.24-2.16-22.79,5.73-45.67,10.64-69.11,12.8a316.11,316.11,0,0,1-31.83,1.27,171.56,171.56,0,0,1-28.91-2.55c-14.26-2.54-28.2-6.58-42.54-8.67A99.52,99.52,0,0,0,77,42.8a32.66,32.66,0,0,0-4.53.14,39.4,39.4,0,0,1-6.24.05,29.46,29.46,0,0,0-5,.89c-2.83.59-5.63,1.23-8.47,1.76A78.59,78.59,0,0,1,42.5,46.89a37.52,37.52,0,0,1-10.15-.45,15.27,15.27,0,0,1-6.1-2.57,9,9,0,0,1-2.69-2.71l-1.91-5a56.63,56.63,0,0,1-.41-6.38c-.14-2.49-.27-5-.43-7.48l-.37,5c.57-4.56,2.17-11.53-.71-15.93a15.86,15.86,0,0,0-2.52-2.66A16.41,16.41,0,0,0,14.4,6.29C11.84,4.8,9.67,5.1,6.91,5.43a.87.87,0,0,0,.46.71C8.14,6.79,8.93,7.4,9.74,8S12,10.06,13,9.94Z"/>
    <path class="cls-1" d="M15.31,7.68l2.78-.24-.84-.14L20,8.1,17.55,7,19.81,8.5,19.24,8c3.29,5.73,2.35,10.05,1.43,15.52-.51,3-.87,6.2-1.3,9.26a63.23,63.23,0,0,0-.77,7.52,8.57,8.57,0,0,0,1.08,5.15c2.23,3.91,5.49,5.66,9.79,6.71,8.35,2,17.09.19,25.26-1.82,6.35-1.57,12.68-3.68,19.2-4.47a42.11,42.11,0,0,1,14.29,1.12,87.06,87.06,0,0,1,19.26,3c7.74,1.85,15.4,4,23.17,5.76a150.13,150.13,0,0,0,23.77,3.62,248.79,248.79,0,0,0,38.7-.63q16.11-1.53,32-4.49c14.94-2.75,29.6-6.43,44.26-10.36.63-.17-.43-.81-.47-.84-.44-.3-1.59-1.07-2.18-.91-16.6,4.39-33.23,8.5-50.19,11.27a306.15,306.15,0,0,1-44.62,4.12,181.85,181.85,0,0,1-35.19-2.37c-7.83-1.42-15.54-3.43-23.26-5.33-5.13-1.25-10.26-2.5-15.43-3.55q-3.89-.78-7.8-1.35a106.77,106.77,0,0,0-15.88-1.11c-7.73.43-15.15,3.27-22.62,5a68.8,68.8,0,0,1-14.19,2c-5.83.12-13.45-1.13-16.52-7.12-2-3.95-1.21-9.41-.48-13.58.47-2.72,1.09-5.41,1.68-8.11a29.1,29.1,0,0,0,1-8.14A9.71,9.71,0,0,0,21.87,9a8.07,8.07,0,0,0-3.55-2.34c-2.24-.84-3.41-.69-5.76-.55-.71,0,.63.88.52.81A4.49,4.49,0,0,0,15.31,7.68Z"/>
    <path class="cls-1" d="M13.07,10l2.87-.33-.36,0L18.83,11,11.92,4.61l8,8.18L13.36,4.93l7.43,12.46L16.68,8.94l4.11,11-2.88-8.74L20.65,22.5l-1.74-9,1.52,11.71L19.76,16l.4,12,.11-7.33C20,27,19.46,33.1,19.16,39.39a28.58,28.58,0,0,0-.05,4.24,10.81,10.81,0,0,0,2.49,5.81,14.57,14.57,0,0,0,7.27,4c6.49,1.71,13.38.76,19.88-.52,6.71-1.32,13.3-3.43,20-4.52a51.24,51.24,0,0,1,9.68-.4,116.25,116.25,0,0,1,19.75,2.34c12.92,2.57,25.53,6.46,38.48,8.92a155.93,155.93,0,0,0,28.93,2.48,297.43,297.43,0,0,0,32.13-1.7c23.66-2.53,46.72-7.85,69.68-14a1.74,1.74,0,0,0-.77-1q-1.77-1.58-3.61-3.06t-3.7-2.94a1.71,1.71,0,0,0-1.15-.56c-18.52,4.56-37.1,8.62-56,11-8.38,1.05-16.75,1.79-25.19,2.17q-9.48.59-19,.29l-13-.44c-12-1-23.73-3.63-35.44-6.16-5.23-1.12-10.46-2.21-15.72-3.13A112.38,112.38,0,0,0,73.7,40.11l-8.77.38-2-.18a35.94,35.94,0,0,0-6.21,1.1,78.11,78.11,0,0,1-14.28,1.78c-4.08.05-8.41.25-12.31-1.25a10.52,10.52,0,0,1-4.44-3.42c-1.51-1.88-2-3.79-2.55-6.14l.06.36c-.64-7.06-2-14.11-3.23-21.06-.22-1.32-2.18-2.53-3.1-3.39s-2-1.9-3.05-2.83a13.49,13.49,0,0,0-2.23-1.83A7.85,7.85,0,0,0,9,2.81a12.39,12.39,0,0,0-5.35.24,1.66,1.66,0,0,0,.8,1q1.8,1.46,3.66,2.82c1.23.93,2.48,1.82,3.75,2.69A1.71,1.71,0,0,0,13.07,10Z"/>
    <path class="cls-1" d="M11.86,7.51l2.88-.36-.4,0,2.32.53L11.12,4.21l6.37,4.18L8.89,1.78,18.62,10l-8.23-8.2L19.7,14.4,14.33,5.32l5.54,11.45L16,7.29l3.91,12L17.48,9.4l2.4,12.53L18.79,11.58a85.7,85.7,0,0,1,.84,17.66c-.06,1.5-.15,3-.25,4.5-.09,1.93-.15,3.87-.08,5.81a11,11,0,0,0,7.8,10.21c6.2,2.05,12.6,1.41,18.94.46,6.75-1,13.32-2.92,20-4.21a38.07,38.07,0,0,1,7.21-.79,114.5,114.5,0,0,1,20,1.7c14.3,2.45,28.16,7,42.44,9.44,18,3.14,36.41,2.91,54.61,1.54,25.78-1.95,51.08-7.87,76-14.42a2.23,2.23,0,0,0-1-1.06q-2.19-1.62-4.44-3.15c-1.49-1-3-2-4.53-3a2.21,2.21,0,0,0-1.35-.57c-12.27,3-24.54,5.87-37,7.93C209.73,45,201.45,46.15,193.13,47a285.36,285.36,0,0,1-37.66,1.48l-13-.46q-6-.5-11.89-1.51C117.33,44.45,104.26,41.17,91,39A137.63,137.63,0,0,0,70.6,37.13a42.65,42.65,0,0,1-9.71.21,9.63,9.63,0,0,0-4,.28c-4.94.73-9.75,1.6-14.76,1.38-3.9-.17-7.66-.26-11.4-1.55a9.91,9.91,0,0,1-4.44-4.13,17.09,17.09,0,0,1-1.88-6.08,55.23,55.23,0,0,0-3.1-11.5l.14.36c-1.33-3.53-1.26-6-3.61-8.19a82.39,82.39,0,0,0-6.79-5.29A10.58,10.58,0,0,0,6,.14a16.87,16.87,0,0,0-6,.4,2.29,2.29,0,0,0,1.09,1Q3.39,3,5.74,4.35C7.3,5.28,8.87,6.17,10.46,7A2.27,2.27,0,0,0,11.86,7.51Z"/>
    <path class="cls-1" d="M13.53,9.24l2.86-.33h-.34l2.3.57-4.41-2.9,5.34,3.78-6.76-5.6,7.84,7.34L14.44,5.9l5.44,7L16,7.42l4.35,7.73L17.18,9.22l3.37,8.36-2.21-6.11,2.28,8.66-1.36-6.25,1.56,10.57L20,16.36l.51,10.81,0-6.38c-.17,6.32-.74,12.53-1,18.82A14.9,14.9,0,0,0,20,44.46c2.21,8,11.83,9.29,18.86,8.95,8-.38,15.82-2.44,23.58-4.29a74.31,74.31,0,0,1,9.79-1.93c8.78-.88,17.79.83,26.38,2.34l-.33-.07c10.37,2.28,20.62,5.06,31,7.35q7.78,1.78,15.71,2.86a167.67,167.67,0,0,0,21,1.23,300.3,300.3,0,0,0,51.33-4.22c17.08-2.8,33.83-6.94,50.54-11.37a1.52,1.52,0,0,0-.77-.92c-1.15-.92-2.33-1.8-3.53-2.66S261.2,40,260,39.2a1.56,1.56,0,0,0-1.12-.44c-18.53,4.59-37.11,8.68-56.06,11.1a307.92,307.92,0,0,1-31.53,2.51,227.85,227.85,0,0,1-29.68-.86c-12-1.31-23.62-4.13-35.36-6.62-5.23-1.11-10.47-2.16-15.74-3a78.46,78.46,0,0,0-12-1.29,65.49,65.49,0,0,0-12.83.14l.34,0a8.08,8.08,0,0,0-3.91.08c-1.57.25-3.13.55-4.69.89-2.18.47-4.34.9-6.55,1.24a78.74,78.74,0,0,1-9.45.81,35.88,35.88,0,0,1-7.47-.32c-2-.35-4.16-.69-5.82-1.87l-1.77-1.49a7.41,7.41,0,0,1-2.39-4.34,8.59,8.59,0,0,1-1-4.17l-.29-2.35-.29-2.56a69.1,69.1,0,0,0-1.94-15.81c-.21-1.2-2.18-2.27-3.05-3s-2-1.66-3-2.47a13,13,0,0,0-2.18-1.57,9.53,9.53,0,0,0-4.69-1,9,9,0,0,0-3.2.4,1.55,1.55,0,0,0,.81.88C6.25,5,7.46,5.76,8.69,6.55s2.45,1.57,3.7,2.31A1.52,1.52,0,0,0,13.53,9.24Z"/>
    <path class="cls-1" d="M15.05,12.74,21,14.12l-1.41-1.51c2.48,4.95,1.52,9.76.8,14.7-.6,4.17-1.14,8.43-1.63,12.62s-1.23,7.92,1.34,11.6c3.39,4.84,9.59,6.08,15.17,6.43a53.41,53.41,0,0,0,13.09-1.33c4.08-.79,8.11-1.89,12.12-3,4.36-1.17,8.77-2.57,13.28-2.92a74,74,0,0,1,14.57.66c14.25,1.71,28,6.06,41.94,9.25A157.78,157.78,0,0,0,154,64.29a184.66,184.66,0,0,0,19.4.34q9.72,0,19.39-.95A360.24,360.24,0,0,0,231.34,58c12.78-2.61,25.38-5.82,38-9.2.82-.22-1.4-2.64-1.91-2.5-16.77,4.4-33.55,8.49-50.68,11.22a319.22,319.22,0,0,1-38.65,3.89c-12.63.45-25.34.22-37.85-1.73-9.11-1.43-18-3.64-27-5.79-7.54-1.81-15.1-3.55-22.77-4.72-7-1.06-14.39-1.82-21.39-.5-8,1.51-15.72,4.06-23.78,5.22-4.66.66-9.35,1-14,0-4.09-.91-8.47-2.57-10.55-6.6-2.21-4.27-.92-10.39-.08-14.76.53-2.74,1.25-5.43,1.73-8.18.64-3.56,1.38-8.4-1.47-11.29a9.91,9.91,0,0,0-2.3-1.78c-2-1.08-3.39-.82-5.58-.63C12.4,10.71,14.41,12.8,15.05,12.74Z"/>
  </g>
</svg>
