<svg id="Layer_1" data-name="Layer 1" xmlns="http://www.w3.org/2000/svg" viewBox="0 0 140.88 68.36">
  <defs>
    <style>
      .cls-1 {
        fill: #d6e8ed;
        opacity: 0.11;
      }
    </style>
  </defs>
  <title>Artboard 3</title>
  <g>
    <path class="cls-1" d="M73.1,10.59a7.63,7.63,0,0,0-3.57,1.23l-1.82.7a29.15,29.15,0,0,1-7.85.52,24.44,24.44,0,0,1-5.16-.88C48.05,10.53,42,7.36,35.48,5.31,28,3,18.81,1.65,12.11,6.81,8.84,9.34,6,12.45,4.79,16.5l-.93,3.85a16.16,16.16,0,0,0,.45,7.93c1.9,7.64,6.62,14.36,12.4,19.6A49.28,49.28,0,0,0,25,54.11c5.08,2.91,10.82,4.24,16.54,5.13,11.54,1.79,23.6.68,35.09-.88a220,220,0,0,0,28.54-5.9c10.72-2.92,21.35-6.18,32.07-9.12a1.84,1.84,0,0,0-1-.82c-1.41-.74-2.83-1.46-4.27-2.14s-2.87-1.37-4.33-2a1.76,1.76,0,0,0-1.27-.28C105.72,43.42,85.1,50,63.6,50.75a108.64,108.64,0,0,1-20.23-1,54.3,54.3,0,0,1-9.91-2.26,35.67,35.67,0,0,1-8.67-4.43l.18.28-1-1.71L22.42,40a34.31,34.31,0,0,1-2.79-4.09,16.57,16.57,0,0,1-2.36-4.81,32.06,32.06,0,0,1-1.18-3.76,12.74,12.74,0,0,1,.35-3.78,6.59,6.59,0,0,1,1.95-3.79,13.57,13.57,0,0,1,4.1-3,16.81,16.81,0,0,1,6.37-1.32c9.49-.24,18.73,3.57,27.91,5.44,2.35.47,4.72,1,7.08,1.35a67.29,67.29,0,0,0,9.42.38c3.19.06,6.41-.67,9.58-.44a2.57,2.57,0,0,0-.79-1.4c-1.24-1.57-2.5-3.11-3.8-4.63s-2.58-3-3.91-4.53A2.64,2.64,0,0,0,73.1,10.59Z"/>
    <path class="cls-1" d="M74.08,12.66,72.3,13a19.92,19.92,0,0,1-2.66,1.11c-2.73,1-5.91.86-8.75.85l.35,0-3.78-.45.35,0a69,69,0,0,1-9.88-2.87c-2.14-.83-4.24-1.71-6.39-2.51-5.71-2.13-11.6-3.92-17.76-3.84A20.35,20.35,0,0,0,13.19,8.66,19.44,19.44,0,0,0,5.59,18a20.56,20.56,0,0,0-1.18,9.7A30.39,30.39,0,0,0,8.27,39,47.66,47.66,0,0,0,22.73,54.58c8.51,5.71,18.84,7.35,28.89,7.62a166.15,166.15,0,0,0,31.17-2.54c19-3.12,37.22-9.35,55.73-14.45a1.94,1.94,0,0,0-1-.93c-1.41-.91-2.85-1.78-4.3-2.62s-2.9-1.69-4.38-2.49a2,2,0,0,0-1.31-.42c-20.78,5.4-41.42,12-63,13.12a113.55,113.55,0,0,1-20.61-.62,57.12,57.12,0,0,1-10.19-2.12,38.8,38.8,0,0,1-9.24-4.28l.21.28a26.46,26.46,0,0,0-3-3.56,35.14,35.14,0,0,1-4-5.35,17.36,17.36,0,0,1-2-4.49,24,24,0,0,1-1.18-4.27,11.19,11.19,0,0,1,3.4-9.31,13.49,13.49,0,0,1,4.87-3,23.54,23.54,0,0,1,6.83-.77,58.71,58.71,0,0,1,14,2.37c5.08,1.38,10.16,2.74,15.32,3.78,1.3.26,2.61.6,3.92.78a56,56,0,0,0,7.55.39,64.6,64.6,0,0,0,8.35-.42,18.72,18.72,0,0,1,3.27-.18,1.6,1.6,0,0,0-.6-1.08q-1.48-1.74-3-3.39t-3.16-3.28A1.62,1.62,0,0,0,74.08,12.66Z"/>
    <path class="cls-1" d="M71.49,7.36A7.5,7.5,0,0,0,68,8.63,23.9,23.9,0,0,1,58.34,10,38.06,38.06,0,0,1,46.69,7C39.73,4.14,32.9.76,25.29.11A23.74,23.74,0,0,0,14.06,1.63,23.48,23.48,0,0,0,1.86,14.22,25.62,25.62,0,0,0,0,23.31a32.82,32.82,0,0,0,2.12,9.08c2.61,6.92,7.56,13,13.2,17.74a48.43,48.43,0,0,0,21,10.28c12.2,2.63,25,1.6,37.27,0a236.12,236.12,0,0,0,29.68-5.92c12.39-3.31,24.57-7.35,36.92-10.81.64-.18-1-1.26-1.54-1.12-15.33,4.28-30.43,9.47-45.95,13C86.32,57,79.43,58.15,72.91,59c-4.9.66-9.81,1.17-14.74,1.41a102.83,102.83,0,0,1-15.5-.33c-9.76-1-17.7-4-25-9.78a46.65,46.65,0,0,1-7.34-7.12q-12-13.2-6-25.2a20.56,20.56,0,0,1,3.32-5.73,23.34,23.34,0,0,1,8.85-6.11,25.48,25.48,0,0,1,8.61-1.4l7,.83q2.67.57,5.26,1.4c2.78.84,5.49,1.86,8.23,2.84,5.85,2.09,12,4.15,18.31,3.72a41.66,41.66,0,0,0,6.59-.93,27.16,27.16,0,0,1,4.38-.87c.4,0-1.45-2.53-1.38-2.43C73.21,9,72.17,7.21,71.49,7.36Z"/>
    <path class="cls-1" d="M70.27,12.11A8.82,8.82,0,0,0,67.05,14a14.47,14.47,0,0,1-7.54,1.5,35.23,35.23,0,0,1-12.26-2.64c-2.83-1.1-5.53-2.54-8.34-3.69A60.05,60.05,0,0,0,28.63,5.92C20.46,4.22,11.85,6,6.14,12.43a36.49,36.49,0,0,0-2.91,3.66C.37,20.4-.45,26.2.29,31.2,1.72,41,7.62,49.57,15.1,55.8a49.63,49.63,0,0,0,9.71,6.38c6.53,3.23,13.56,4.55,20.75,5.11,12.9,1,25.8-.65,38.48-2.93,6.51-1.17,12.77-2.52,19.17-4.18C115.56,57,127.7,52.89,140,49.45c.81-.23-1.36-2.45-1.87-2.31q-6.85,1.8-13.64,3.86-11.62,3.45-23.31,6.67c-8.78,2-17.68,3.89-26.63,5.11-10.81,1.47-22,2.26-32.81.76a51,51,0,0,1-24-9.43C11.9,49.78,6.51,43.8,4,36.91a24.87,24.87,0,0,1-1.88-10.2A18.11,18.11,0,0,1,3.2,20.59L14.26,8.4C18.4,6.27,24.77,6.34,29,7.23a62.83,62.83,0,0,1,10.37,3.21c2.45,1,4.84,2.09,7.27,3.12a48.28,48.28,0,0,0,8.58,2.61,20.19,20.19,0,0,0,5.25.53,26.09,26.09,0,0,0,6.11-.42c1.32-.69,3.17-2.58,4.29-3.29C71.42,12.65,70.7,11.92,70.27,12.11Z"/>
    <path class="cls-1" d="M73.72,13.43a28.27,28.27,0,0,0-4.46,1.44c-2.72,1-5.91.84-8.74.82l.39,0-3.82-.45.39.05a71.62,71.62,0,0,1-9.86-2.83c-2.15-.81-4.27-1.69-6.43-2.48C35.47,7.93,29.58,6.15,23.42,6.21A20.32,20.32,0,0,0,12.8,9.46a19.2,19.2,0,0,0-7.62,9.19,20.32,20.32,0,0,0-1.24,9.69A30.2,30.2,0,0,0,7.8,39.72,47.68,47.68,0,0,0,22.26,55.2c8.5,5.67,18.78,7.29,28.81,7.51a167.34,167.34,0,0,0,31-2.61c19-3.12,37.14-9.35,55.62-14.44a2.35,2.35,0,0,0-1.08-1.08q-2.29-1.66-4.65-3.23t-4.74-3.1a2.33,2.33,0,0,0-1.41-.59c-8.88,2.27-17.73,4.68-26.62,6.91C89.71,47,80,49.11,70.2,49.83a119.64,119.64,0,0,1-29.41-.95,39.43,39.43,0,0,1-7.34-1.76,35.47,35.47,0,0,1-8.72-4.27l-.81-1.44a22.78,22.78,0,0,1-3.12-3.6,22.88,22.88,0,0,1-3.32-6L17,29.69a6.31,6.31,0,0,1-.81-3.5,20.15,20.15,0,0,0,.56-2.76,4.75,4.75,0,0,1,1.11-2.8,13,13,0,0,1,6.25-4.22,27.93,27.93,0,0,1,8.25-.5,69.11,69.11,0,0,1,10.56,1.87c7.1,1.67,14.1,3.7,21.35,4.74a50.54,50.54,0,0,0,7.58.3,31.24,31.24,0,0,0,5.64-.06,40.07,40.07,0,0,1,5.89-.28,2.06,2.06,0,0,0-.81-1.17c-1.22-1.23-2.47-2.45-3.75-3.63s-2.54-2.37-3.86-3.52A2.1,2.1,0,0,0,73.72,13.43Z"/>
    <path class="cls-1" d="M73.58,11.62A7.76,7.76,0,0,0,70,12.8,13.06,13.06,0,0,1,64,14c-5,.27-9.57-1-14.29-2.41l.39.14-3.06-1.17.39.16C36.64,6.28,23.56.62,12.64,7.77,6.89,11.53,3.94,18.28,4,25A23.88,23.88,0,0,0,5.19,30.8a29.5,29.5,0,0,0,2.12,5.59,50.72,50.72,0,0,0,5.6,8A42.74,42.74,0,0,0,27.82,56c9.15,4.17,19.3,4.9,29.24,4.73a188.37,188.37,0,0,0,29.67-3.27c17.28-3.06,34-8.83,50.89-13.46a2.15,2.15,0,0,0-1.09-.92q-2.28-1.32-4.6-2.53t-4.68-2.4a2,2,0,0,0-1.37-.39c-20.62,5.27-41.19,11.85-62.62,12.5a108.41,108.41,0,0,1-20-1A52.39,52.39,0,0,1,33.39,47a34.63,34.63,0,0,1-8.56-4.38L25,43l-.95-1.76-1.53-1.65a33.15,33.15,0,0,1-2.7-4,15.51,15.51,0,0,1-2.18-4.68,36.06,36.06,0,0,1-1.09-3.59A13.05,13.05,0,0,1,17,23.61,6.18,6.18,0,0,1,18.84,20a13.35,13.35,0,0,1,4-2.87,17.11,17.11,0,0,1,6.32-1.25c9.49-.19,18.75,3.59,28,5.41,2.36.47,4.74,1,7.11,1.32a75.94,75.94,0,0,0,9.42.37c3.18.07,6.39-.64,9.56-.39a2.47,2.47,0,0,0-.79-1.34c-1.22-1.49-2.48-2.95-3.76-4.38S76.13,14,74.82,12.57A2.46,2.46,0,0,0,73.58,11.62Z"/>
    <path class="cls-1" d="M72.11,12.94a25,25,0,0,0-4.34,1.4,24.06,24.06,0,0,1-12.15.56C49,13.68,43,10.44,36.63,8.17,30.85,6.09,24.4,4.67,18.26,5.94a21.31,21.31,0,0,0-10.51,5.8,20.49,20.49,0,0,0-6.07,13.1C.76,34.21,6,43.45,12.26,50.05A46.61,46.61,0,0,0,38.75,63.83c12.88,2.13,26.1,1,38.93-1q12.15-1.89,24-4.92c12.35-3.15,24.49-7.22,36.78-10.63.27-.08-2.93-2.6-2.83-2.53-.55-.4-2.39-2.16-3.28-1.92-18.15,4.87-36.19,11-54.88,13.43a163.07,163.07,0,0,1-26.4,1.59,76.64,76.64,0,0,1-16.78-2.37,24.09,24.09,0,0,1-9-3.82,25.1,25.1,0,0,1-5.83-3.88c-4.73-4.11-8.72-9.08-10.77-15.06C6.83,27.3,7.12,20.38,11.14,15.88c4.5-5,11.82-7,18.43-6.07a57.84,57.84,0,0,1,8.89,2c6.11,1.87,12,4.52,18.32,5.82a34.12,34.12,0,0,0,11.13.56c2.84-.36,5.76-1.3,8.64-1.35.84,0-1.19-1.7-1.32-1.82C74.58,14.52,73.08,12.77,72.11,12.94Z"/>
    <path class="cls-1" d="M72.22,8.79a7.65,7.65,0,0,0-3.46,1.33,24.22,24.22,0,0,1-9.6,1.42,38.64,38.64,0,0,1-10.3-2.48c-4-1.42-7.77-3.43-11.77-4.84a48.05,48.05,0,0,0-10.7-2.54A23.4,23.4,0,0,0,14.94,3.16,25.25,25.25,0,0,0,4.65,11.7,23,23,0,0,0,.91,24.85a30.3,30.3,0,0,0,3,11C7.42,43.79,13.79,50.26,21,55a47.27,47.27,0,0,0,19.34,7.21c12.21,1.91,24.64.92,36.79-.93a246.51,246.51,0,0,0,26.79-5.49c12.34-3.3,24.48-7.33,36.77-10.79.64-.18-.46-.8-.49-.82-.47-.28-1.6-1-2.19-.81-7.53,2.12-15,4.34-22.52,6.61s-15.16,4.62-22.88,6.24a241.47,241.47,0,0,1-28,4.4c-4.93.44-10.23,1-15.16.5L17,49.94,14.1,47.33A45.42,45.42,0,0,1,7.64,39.1a25.86,25.86,0,0,1-3.92-9.81L4,21.18l1.47-3.94a11.47,11.47,0,0,1,3.75-5.3Q13.1,7.55,19.73,8A13.44,13.44,0,0,1,30.51,5.84,33.72,33.72,0,0,1,35.85,7c2.3.66,4.54,1.43,6.78,2.24,5.19,1.88,10.5,4.13,16,4.84a32.66,32.66,0,0,0,7.33.07,15.47,15.47,0,0,0,5.2-1,25.4,25.4,0,0,1,3.65-1.05c.45-.08-1.06-1.94-1-1.89C73.55,9.86,72.83,8.64,72.22,8.79Z"/>
    <path class="cls-1" d="M73.33,13.9A7.55,7.55,0,0,0,69.89,15L64.2,16.22c-4.16.49-8.43-.52-12.39-1.69C45.32,12.61,39.3,9.47,32.7,7.85s-14.15-2.06-20,2c-3.42,2.36-6.54,5.37-8,9.35a22.37,22.37,0,0,0-1.18,12C5,39.53,9.93,47,16.1,52.55a48,48,0,0,0,9,6.55c5.31,2.91,11.23,4.23,17.16,5.08,11.75,1.68,24,.37,35.68-1.37a236.66,236.66,0,0,0,28.62-6.16c10.72-3,21.35-6.31,32.08-9.29a1.7,1.7,0,0,0-.82-1c-1.2-1-2.44-1.9-3.69-2.81s-2.5-1.82-3.78-2.69a1.71,1.71,0,0,0-1.17-.49c-26.84,7-54,16.05-82.12,13.49a64.18,64.18,0,0,1-15.83-3.23,33.24,33.24,0,0,1-7.41-3.31l-1.1-1.47A24.89,24.89,0,0,1,19.54,43a26.48,26.48,0,0,1-2.93-3.41,27.44,27.44,0,0,1-4.12-7.69C10.92,27.29,11,22,14.13,18.11a11.1,11.1,0,0,1,3.23-3.06l5.42-2.17c5.46-1.55,11.35-.07,16.72,1.33,6.86,1.78,13.55,4.62,20.6,5.65a49.39,49.39,0,0,0,11.2.42c2.77-.25,5.59-1,8.37-1a1,1,0,0,0-.47-.79c-.8-.75-1.61-1.47-2.46-2.17C76.22,15.85,74.27,13.71,73.33,13.9Z"/>
    <path class="cls-1" d="M73.48,12.51a6,6,0,0,0-2.68.75,19.69,19.69,0,0,1-2.7,1.07c-3.67.91-7.57.53-11.26.07l.4.08-3.87-.89.4.1c-6.1-1.78-11.83-4.47-17.89-6.35a48.74,48.74,0,0,0-9-1.95c-3.43-.39-7.81-.11-11,1.36A22.86,22.86,0,0,0,8,12.88a19.46,19.46,0,0,0-4,8.84C2.47,28.88,6,36.56,10.11,42.22A48.68,48.68,0,0,0,23.66,55c8.79,5.58,20.08,6.77,30.27,6.72a185.2,185.2,0,0,0,27.91-2.57c19-3,37.16-9.29,55.62-14.36a2.15,2.15,0,0,0-1.06-1q-2.27-1.49-4.57-2.88t-4.66-2.74a2.14,2.14,0,0,0-1.38-.49c-8.88,2.27-17.73,4.68-26.63,6.9-9.51,2.38-19.23,4.54-29,5.23a118.42,118.42,0,0,1-29.38-1.05A39.47,39.47,0,0,1,33.43,47a34.64,34.64,0,0,1-8.62-4.32L24,41.23a21.52,21.52,0,0,1-3-3.57,23.37,23.37,0,0,1-3.26-5.85l-.49-2.11a6.15,6.15,0,0,1-.89-3.45,23.08,23.08,0,0,0,.53-2.73A4.69,4.69,0,0,1,18,20.72a13,13,0,0,1,6.19-4.23,27.58,27.58,0,0,1,8.2-.51,68.75,68.75,0,0,1,10.55,1.86c7.11,1.68,14.13,3.68,21.37,4.75a50.89,50.89,0,0,0,7.61.31,30.92,30.92,0,0,0,5.61-.06,39.38,39.38,0,0,1,5.84-.27,2.37,2.37,0,0,0-.82-1.27c-1.26-1.36-2.54-2.71-3.85-4s-2.61-2.63-4-3.91A2.35,2.35,0,0,0,73.48,12.51Z"/>
    <path class="cls-1" d="M73.58,13a7.54,7.54,0,0,0-3.43,1.16,8.34,8.34,0,0,1-3.72.94,30,30,0,0,1-10.81-.5C48.4,13,41.87,9.42,34.75,7.43c-6-1.67-12.64-2.6-18.53-.17A20.65,20.65,0,0,0,3.53,28.44c1,9,6.14,17.37,12.92,23.26a47.49,47.49,0,0,0,9,6.47,52.15,52.15,0,0,0,17.18,5.11c11.86,1.57,24,.44,35.72-1.3a239.51,239.51,0,0,0,24-4.84C114.67,54,126.79,50,139.07,46.57a1.5,1.5,0,0,0-.81-.87c-1.18-.84-2.39-1.65-3.61-2.43S132.2,41.7,131,41a1.52,1.52,0,0,0-1.13-.38c-27.67,7.32-56.06,16.94-85.11,13.64-5.23-.59-11.15-1.61-16-3.86a35.58,35.58,0,0,1-10.41-7.86A31.14,31.14,0,0,1,13.12,35c-1.1-2.33-2.32-5.52-2.25-8.15s.48-5.65,2-7.89c1.7-2.51,4.48-5.22,7.44-6.07a26.35,26.35,0,0,1,8.82-1L39.4,13.64q3.54,1,7.05,2.09c6.22,1.91,12.47,3.87,19,4.08a52.1,52.1,0,0,0,9.9-.59,23.35,23.35,0,0,1,4.07-.51,1,1,0,0,0-.4-.81c-.73-.79-1.48-1.55-2.26-2.29C76.35,15.2,74.47,12.86,73.58,13Z"/>
    <path class="cls-1" d="M70.87,12.39a9.23,9.23,0,0,0-3.14,2L61.94,15.9a35.36,35.36,0,0,1-16.56-3.77c-.94-.47-1.88-.91-2.85-1.32-6.06-2.69-12.33-4.92-19-5.09A21.58,21.58,0,0,0,6.54,13a20.59,20.59,0,0,0-4.66,7.56A24.71,24.71,0,0,0,1.16,33.9c2,8.85,7.72,16.66,14.57,22.44a50.39,50.39,0,0,0,9.81,6.55c5.53,2.77,11.5,4,17.58,4.83,12.06,1.54,24.63,0,36.55-1.89a249.65,249.65,0,0,0,28.87-6.44C119.25,56.33,129.87,53,140.6,50c.8-.23-1.39-2.48-1.9-2.34-9.23,2.56-18.38,5.33-27.57,8A271.84,271.84,0,0,1,78,63c-11.65,1.84-23.57,2.72-35.33,1.43a52,52,0,0,1-16.83-4.66,49.23,49.23,0,0,1-9.1-6C9.65,48.26,4,40.28,2.32,31.32A13.41,13.41,0,0,1,2.18,25,13.24,13.24,0,0,1,7,15.67a13.21,13.21,0,0,1,7.36-7.24,18.52,18.52,0,0,1,9.21-1.72c8.29.19,15.53,3.6,23,6.85a41.32,41.32,0,0,0,10.33,2.93,27.09,27.09,0,0,0,5.61.41,9.19,9.19,0,0,0,4.53-.35,2.47,2.47,0,0,0,1.41-1.24,9.61,9.61,0,0,1,2.62-2.17C71.41,12.92,71.25,12.19,70.87,12.39Z"/>
  </g>
</svg>
