<?xml version="1.0" standalone="no"?>
<!DOCTYPE svg PUBLIC "-//W3C//DTD SVG 20010904//EN"
 "http://www.w3.org/TR/2001/REC-SVG-20010904/DTD/svg10.dtd">
<svg version="1.0" xmlns="http://www.w3.org/2000/svg"
 width="794.000000pt" height="794.000000pt" viewBox="0 0 794.000000 794.000000"
 preserveAspectRatio="xMidYMid meet">
<metadata>
Created by potrace 1.11, written by Peter Selinger 2001-2013
</metadata>
<g transform="translate(0.000000,794.000000) scale(0.100000,-0.100000)"
fill="#000000" stroke="none">
<path d="M3660 6864 c-591 -55 -1118 -255 -1572 -596 -125 -95 -147 -115 -107
-105 179 50 400 59 1294 55 857 -5 884 -6 1081 -64 167 -48 300 -138 374 -254
30 -46 33 -49 53 -35 12 7 130 84 262 169 l240 156 250 0 250 1 -35 29 c-72
61 -256 185 -374 253 -338 194 -701 317 -1097 372 -110 15 -521 28 -619 19z"/>
<path d="M2555 5569 c-211 -31 -275 -117 -275 -374 l0 -105 -431 0 -430 0 3
240 c2 132 2 240 0 240 -9 0 -125 -192 -182 -303 -180 -346 -280 -672 -325
-1057 -19 -162 -19 -498 0 -661 90 -769 453 -1454 1035 -1950 92 -79 219 -173
225 -167 3 2 0 42 -5 89 -5 46 -10 135 -10 197 l0 112 415 0 415 0 4 -22 c3
-13 7 -46 9 -74 8 -108 70 -172 192 -201 59 -13 156 -17 617 -20 579 -5 715 1
810 37 57 21 105 64 131 116 34 68 47 246 27 374 -22 140 -82 200 -226 225
-97 18 -1285 22 -1345 5 -74 -21 -143 -88 -156 -152 l-5 -28 -394 0 -394 0 0
565 0 565 -420 0 -420 0 0 543 c0 596 3 627 60 744 98 198 313 316 655 358 66
8 415 33 775 55 847 53 939 65 1015 132 50 43 60 84 60 238 -1 281 -30 291
-872 289 -274 -1 -525 -5 -558 -10z"/>
<path d="M6360 4386 l0 -1166 -415 0 -415 0 0 1125 c0 619 -2 1125 -4 1125 -3
0 -668 -423 -683 -434 -1 -1 -9 -51 -18 -111 -63 -427 -259 -567 -875 -629
-85 -9 -416 -29 -735 -46 -319 -17 -615 -35 -657 -41 -215 -28 -280 -83 -297
-250 -4 -46 -6 -87 -4 -91 2 -5 661 -8 1464 -8 l1459 0 0 -320 0 -320 -1070 0
-1070 0 0 -250 c0 -137 3 -250 6 -250 4 0 24 16 45 35 89 80 207 119 408 136
171 14 1293 6 1406 -10 132 -20 235 -49 335 -98 77 -37 109 -60 171 -122 90
-90 138 -176 177 -320 26 -94 26 -103 26 -411 1 -288 -1 -324 -21 -415 -12
-54 -21 -101 -18 -103 5 -5 102 67 220 164 115 94 305 284 397 395 752 912
899 2184 376 3234 -63 126 -182 330 -198 340 -6 4 -10 -422 -10 -1159z"/>
</g>
</svg>
