<svg id="Layer_1" data-name="Layer 1" xmlns="http://www.w3.org/2000/svg" viewBox="0 0 1173.62 132.25">
  <defs>
    <style>
      .cls-1 {
        opacity: 0.6;
      }

      .cls-2 {
        fill: #e0bd02;
        opacity: 0.11;
      }
    </style>
  </defs>
  <title>pil</title>
  <g class="cls-1">
    <g>
      <path class="cls-2" d="M9.54,67.32q43.88.39,87.65,2.68c29.19,1.57,58.35,3.59,87.55,5.16s58.51,2.71,87.8,2.6A817.19,817.19,0,0,0,361,72.83c27.23-3.07,54.19-8.44,81-13.83,25.93-5.2,51.84-10.55,78-14.74,58.68-9.42,118.5-9,177.72-6.48,23.42,1,46.91,2,70.23,4.42,17.09,1.79,34.12,4,51.22,5.68,33.43,3.25,67.9,4.57,100.58-4.58,19.2-5.37,37.81-12.74,56.59-19.4,19.1-6.78,38.33-13,58.36-16.35l-.37,0,6.1-.83-.37,0,6-.54-.36,0c6.91-.21,13.72-.16,20.51,1.33a47.12,47.12,0,0,1,17,7.25,27.08,27.08,0,0,1,9.42,10.66,34.59,34.59,0,0,1,8.09,13,116.75,116.75,0,0,1,6.44,25.7q1.18,8.22,1.72,16.52a54,54,0,0,1,.17,13,108.32,108.32,0,0,1-1.49,10.91,54.81,54.81,0,0,1-3.77,12.48,23.94,23.94,0,0,1-2.7,4.71,10.91,10.91,0,0,1-5.08,3.94l8.28-3.08-9.29,3,10.8-2.41-17-.3,12.14,2.8-15-7.26,9.41,6.07-10-8.39,7.73,7.39L1083.62,113l6.46,8.5-8.3-12.12L1086,117c-3.49-6.7-7-13.31-9.86-20.29a46.18,46.18,0,0,1-2-5.17A32,32,0,0,1,1072,80.41l-.09,3.54.43-7.29-1.54,10.27,2.28-12.37-3,11.1,4.43-14-4.21,10.68,6-13.11-5.35,9.89,7.57-12L1072,76.2l9-10.82-7.39,7.94,10.2-9.48-8.28,6.85,11.32-8.15L1078,68.16l12.11-6.81-9.36,4.47,12.84-5.51L1086,63a113.65,113.65,0,0,1,24.38-6.29q4.37-.69,8.74-1.26c6-.79,12.09-1.45,18.14-2,10.9-1.06,21.82-1.89,32.73-2.93l-10.9-4.89,6.15,4.79L1161.14,47l4.51,14.53-1-9.06-.77,12.05,1-8-3.06,11.06,3-7.76-5.36,11.09,3.46-5.6a104.36,104.36,0,0,1-12.71,16.81q-3.3,3.63-6.68,7.17c-4,4.26-8.12,8.44-12.25,12.59-6.77,6.84-13.69,13.56-20.18,20.68a2.13,2.13,0,0,0,1.43.13c1.76-.14,3.52-.32,5.27-.53s3.51-.42,5.25-.69a2.09,2.09,0,0,0,1.36-.46c4.21-3.84,7.85-8.37,11.59-12.65,5.93-6.8,11.6-13.82,16.82-21.17A96,96,0,0,0,1162.64,70c1.08-2.51,2.22-5,3.44-7.43l1.74-2.9,1.33-2.86a16.28,16.28,0,0,0,.81-6.27,1.85,1.85,0,0,0-1-.81c-1-.53-2-1-3.07-1.51-1.29-.62-2.58-1.22-3.88-1.8a15,15,0,0,0-2.76-1.09c-4.4.19-8.75.75-13.13,1.3-6.59.82-13.17,1.71-19.71,2.83a210.55,210.55,0,0,0-21.07,4.65,79.56,79.56,0,0,0-15.37,5.66c-.72.37-16.73,13-17,13.59a19.53,19.53,0,0,0-1.11,3.34c-.75,2.54-1.44,5.11-2.08,7.68a9.57,9.57,0,0,0-.26,4.14c1.39,12.26,9.58,23,17.63,31.75l-5.82-10.54a54.76,54.76,0,0,0,7.13,13.33,2,2,0,0,0,1.27.6q2.52.68,5,1.25c1.68.4,3.38.76,5.08,1.09a2.07,2.07,0,0,0,1.41,0,27.08,27.08,0,0,0,9.9-10.6,42.3,42.3,0,0,0,1.71-5.86,75.27,75.27,0,0,0,1.64-10.13c.94-9.56-.06-19.18-1.41-28.65-2.1-14.83-6.15-29.75-13.7-42.78A54.91,54.91,0,0,0,1071.56,4.5c-8.07-3.13-17-4.07-25.58-4-11.79.09-23.39,2.65-34.82,5.36-30.74,7.27-59.86,20-90.2,28.61a88.74,88.74,0,0,1-8.82,2.19Q904,38,895.88,39.71a238.71,238.71,0,0,1-39.25,2.8c-27.07-.06-54-3.34-80.86-6.16-13.14-1.38-26.24-2.43-39.44-3.1-22.64-1.17-45.27-2.28-67.93-2.82-44.37-1.08-89-.65-133.14,4.74-40.72,5-80.8,13.84-121.11,21.27C393.2,60.3,372.21,63.86,351,66.16c-22.74,2.47-45.57,3.68-68.44,4.12-45.52.87-91-1.54-136.43-4.2-22.76-1.33-45.52-2.72-68.3-3.76-25.8-1.18-51.62-1.75-77.43-2.6a1.7,1.7,0,0,0,.77,1c1.16,1,2.34,2.08,3.55,3.07s2.42,2,3.66,2.94A1.66,1.66,0,0,0,9.54,67.32Z"/>
      <path class="cls-2" d="M10.73,69.37q48.77.39,97.42,3.19c29.19,1.68,58.35,3.66,87.55,5.14,32.53,1.65,65.09,2.62,97.67,1.81a745.86,745.86,0,0,0,88.69-7.36c29.28-4.25,58.25-10.7,87.25-16.47C498,50,527,44.35,556.13,41.59c60.27-5.71,121.1-3.37,181.44.2,8.71.51,17.4,1.09,26.08,1.93,9.35.9,18.68,2,28,3.09,19.18,2.24,38.44,4.61,57.75,5.29,17.33.61,34.66.22,51.81-2.54A178,178,0,0,0,924,44.39c5.21-1.56,10.37-3.29,15.51-5.06,20.11-6.93,39.91-14.77,60.2-21.14a245.89,245.89,0,0,1,30.44-7.86c3.82-.68,7.67-1.27,11.54-1.72a105.82,105.82,0,0,1,16.22-.41l-.38,0,5.41.57-.38-.05a58,58,0,0,1,15.88,4.8,41.06,41.06,0,0,1,11.07,8c8.24,8.32,12.83,19.73,15.46,31a168.17,168.17,0,0,1,3.55,21.86c.7,7,1.46,14.43.79,21.48-.35,3.63-.85,7.24-1.54,10.82a62.46,62.46,0,0,1-2.64,9.59,34.89,34.89,0,0,1-2.42,5.23,15.19,15.19,0,0,1-4.63,5.17l6.76-4.36-7.8,4.63,8-3.94-9.88,4.24,8.4-3.06-10.07,2.75,9.3-1.8-12.59-.56,9.29,1.36-12.13-5.45,6.95,4-8.45-6.65,6.27,5.42-7.92-8.5,5.15,6.36-7-9.92,3.29,5.77c-3.18-6-6.3-11.87-8.93-18.1-2.84-6.73-4.49-12.13-4-20.09l-.48,2.75,1.18-5.15-2.43,6.83,3.79-9.79-4.17,8.25,6-10.77-5.19,7.6,7.45-9.78-6.25,6.91,8.8-8.75-7.09,5.95,10-7.54-7.94,5,11-6.34L1080.78,67l13.63-5.41,8.66-2c3.49-.69,7-1.18,10.55-1.67,6.74-.94,13.5-1.7,20.28-2.35,12.43-1.17,24.89-2,37.33-3.2l-11.1-6,8.3,7.32-6.17-5.8,5.1,11.27-2.59-7.27,1.39,10-.72-7.68-.89,10.72.9-7.32-3.25,12.11,2.51-7.93-5,11.14,3.75-7.26-6.48,10.62,3.86-5.32a144.23,144.23,0,0,1-13.7,16.41q-3.35,3.58-6.74,7.12-5,5.25-10.13,10.44c-6.24,6.37-12.59,12.63-18.6,19.22a1.64,1.64,0,0,0,1.25,0c1.06-.21,2.11-.44,3.16-.69,1.31-.3,2.62-.62,3.92-1a13,13,0,0,0,2.68-.83c4.26-4,8-8.55,11.91-12.93,5.85-6.63,11.48-13.45,16.72-20.57a111.57,111.57,0,0,0,7-10.48,75.73,75.73,0,0,1,5.3-8.64,65.72,65.72,0,0,0,5.12-7.28l1.48-2.93a16.9,16.9,0,0,0,1-6.41,2,2,0,0,0-1-.93c-1.46-.9-2.93-1.76-4.43-2.59s-3-1.66-4.5-2.44a2,2,0,0,0-1.34-.41c-5.66.17-11.28,1-16.9,1.72-6.06.75-12.1,1.62-18.12,2.66-12,2.06-24.13,4.8-35.26,9.9a44.47,44.47,0,0,0-13,8.67c-3.46,3.42-2.22,3.13-5.71,10.57a14.62,14.62,0,0,0-1.11,2.61,20.3,20.3,0,0,0,.05,7,37.89,37.89,0,0,0,2.19,8,65.42,65.42,0,0,0,6.4,11.73,92.19,92.19,0,0,0,8,10.39l-4.59-8c6.13,12.12,2.59,7.59,14.22,16.29a1.62,1.62,0,0,0,1.2-.25c1-.42,1.92-.87,2.86-1.33,1.19-.57,2.37-1.15,3.54-1.75a13.73,13.73,0,0,0,2.38-1.37c4.25-5.27,5.93-11.82,7-18.39,1.8-10.67,1-21.69-.47-32.34-2.28-16.46-6.39-33.95-16.17-47.74a53,53,0,0,0-24.3-19.11,70.52,70.52,0,0,0-25.09-4.2,110.41,110.41,0,0,0-11.06.58q-6,.84-11.86,2.12c-6,1.18-12,2.47-18,4-14.8,3.9-29.29,8.89-43.75,13.87S933.7,32.12,919,36a97.86,97.86,0,0,1-11.23,2.37L896.9,40.53c-14.8,2.64-30,3.14-45,2.88-27.06-.46-53.94-4-80.83-6.76-11.24-1.15-22.42-2-33.7-2.55-25.86-1.35-51.71-2.64-77.6-3.11-44.08-.81-88.41,0-132.14,5.93-40.66,5.47-80.67,14.7-121,21.84C388.45,62,370.32,65,352,67a762.87,762.87,0,0,1-78.23,4.37c-42.28.28-84.49-1.89-126.68-4.37-22.76-1.33-45.51-2.74-68.28-3.78C53.05,62,27.23,61.45,1.43,60.58a2,2,0,0,0,.77,1.14Q4,63.52,5.82,65.25t3.73,3.41A2,2,0,0,0,10.73,69.37Z"/>
      <path class="cls-2" d="M12.69,69a357.75,357.75,0,0,1,38.19-.24l19.49.68c22.71.89,45.4,2.34,68.08,3.75,38.93,2.43,77.87,4.88,116.88,5.39,29.52.39,59.19-.16,88.61-3,19.18-1.84,38.27-4.35,57.25-7.74,17.52-3.12,34.95-6.66,52.39-10.21,40.22-8.18,80.48-16.24,121.5-19,38.42-2.6,77-2.11,115.5-.56,19.27.78,38.57,1.74,57.82,3.09,11,.78,22,2,33,3.26,24.9,2.88,49.75,6.2,74.84,6.79,19.37.45,38.71-.71,57.64-5.14,14.75-3.46,29.06-9,43.27-14.22,14.67-5.4,29.32-11,44.26-15.63,11.85-3.66,23.87-7,36.18-8.67,10.35-1.4,21.26-1.84,31.45.84q21.59,5.69,30,27.05l1.9,5.16c3.79,10.8,5.1,22.33,6,33.66.56,7,1.19,14.25.23,21.24-.49,3.55-1.13,7.08-2,10.56-1.59,6.85-4.12,15.09-10.68,18.77l1.34-.53-2.89.87,1.48-.31a29,29,0,0,1-13-17,120.94,120.94,0,0,1-4.82-12.24l-2-5.29a38,38,0,0,1-2.44-13.59l-.19,3.31.61-6.14-.61,3.27,1.67-6.53-.92,3.13a13.78,13.78,0,0,1,5.86-8.07,17.23,17.23,0,0,1,6-4,60.08,60.08,0,0,1,9.27-2.92c10.79-2.64,22.06-3.48,33.09-4.42,15.26-1.3,30.58-2,45.81-3.61l-1.53-.87a12.47,12.47,0,0,1-.65,5.53,15.76,15.76,0,0,1-4.83,8.45c-2.15,2.63-4.57,5-7,7.39-6,6.12-12.51,11.87-18.7,17.86q-8.58,8.31-17.13,16.67c-5.16,5.06-10.37,10.09-15.18,15.5-.51.57,2.42,1,2.8.55,4.72-5.44,9.81-10.53,14.82-15.7,6-6.17,11.93-12.4,18-18.5,5.67-5.7,11.35-11.34,17.12-16.93,3-2.92,6.18-5.87,8.55-9.36l2.1-3.38a19.59,19.59,0,0,0,1.95-7.56c.05-.33-1.27-.91-1.53-.88-10.82,1.17-21.69,1.86-32.54,2.76q-9.12.75-18.23,1.73c-7.8.82-15.65,1.62-23.39,2.88-6.43,1-13.41,2.29-18.75,6.31a18.62,18.62,0,0,0-7.18,13c-1.3,10,3.79,18.92,7.37,27.88,1.09,2.75,2.12,5.62,3.07,8.44.68,2,1.2,4.06,2,6,1.2,2.83,3.45,6.45,6.73,7.22a9.09,9.09,0,0,0,5.73-1c2.77-1.45,4.84-4.36,6.19-7.12a56,56,0,0,0,4-12.17,105.81,105.81,0,0,0,2.14-14.39l-.3-9.19-.55-8.53c-.39-5.07-1-10.16-1.83-15.18-2-12.69-5.81-26.13-14-36.27A42.5,42.5,0,0,0,1072.6,8.51c-14.6-4.83-30.4-3.46-45.24-.52-13.71,2.72-27.06,6.92-40.28,11.43-19,6.48-37.67,14-56.75,20.27A185.13,185.13,0,0,1,895.67,48c-7.6,1-15.3,1.67-22.95,1.87l-11.52-.06q-11.58.21-23.15-.7c-15.42-1.09-30.78-2.85-46.13-4.66-18-2.12-35.94-4.07-54-5.16-28.9-1.73-57.81-3.08-86.76-3.55-12.85-.21-25.7-.14-38.55.09q-14.49.22-29,1.1-13.65.57-27.24,2C533,41.3,509.83,45.13,486.77,49.54s-46.26,9.51-69.46,13.87c-11.67,2.19-23.36,4.4-35.11,6.12l-19.78,2.7a458.42,458.42,0,0,1-49.13,3.54l-29.38,1.48q-14.69.24-29.35,0c-16.28-.21-32.53-.76-48.79-1.48-32.45-1.44-64.86-3.83-97.29-5.66-13-.74-26-1.47-38.95-2L50,67.42A256.73,256.73,0,0,0,12.3,68C11.55,68,12.2,69,12.69,69Z"/>
      <path class="cls-2" d="M11.79,74.22q19.44-.42,38.87.27,14.63.41,29.23,1.13c22.7,1.06,45.37,2.5,68.05,3.9,38.94,2.39,77.91,4.75,116.94,4.91,45.6.2,91-2.78,136-10.76,34.92-6.21,69.51-14.17,104.44-20.35,17.3-3.06,34.68-5.62,52.16-7.45,21.8-2.28,43.79-2.9,65.69-3.13,22.43-.24,44.85.17,67.25,1.1,19.27.81,38.56,1.67,57.79,3.08,49.27,3.61,98.78,14.87,148.29,8.15a185.1,185.1,0,0,0,22.83-4.54c4.12-1.09,8.22-2.51,12.27-3.84,12.82-4.22,25.43-9,38.1-13.67s25.12-9.08,37.93-12.88c13.24-3.94,27.23-7.39,41.12-7.79,14.22-.42,28.8,1.82,39.59,12.4,8.84,8.66,13.27,21.12,15.63,33a181.82,181.82,0,0,1,2.91,21.79,102,102,0,0,1,.38,14.93,38.38,38.38,0,0,1-.63,10c-1.43,8.79-3.51,18.25-10,24.78l1.66-1.34a12.41,12.41,0,0,1-3.86,1.9l-3.76-.42-2-1.26c-3.79-3-4.89-8-6.6-12.25-1-2.59-1.95-5.22-2.92-7.84q-.9-2.37-1.72-4.77a24.35,24.35,0,0,1-.25-17.74q-5.49-11.53,1.93-16.12a11,11,0,0,1,2.69-1.67c4.72-2.45,10.37-3.65,15.46-4.44,25-3.84,50.35-4.08,75.46-6.71l-2.23-2.13a11.81,11.81,0,0,1-.56,5.25,15.08,15.08,0,0,1-2,5.09,33.18,33.18,0,0,1-4.89,6.43c-1.76,2.11-3.58,4.17-5.48,6.16-5.75,5.92-11.63,11.7-17.56,17.45q-8.58,8.32-17.11,16.71c-5.23,5.16-10.48,10.29-15.38,15.77-.41.46.82.32.8.32a3.26,3.26,0,0,0,1.83-.73c5.28-6,11-11.57,16.58-17.26q9.12-9.27,18.26-18.51c5-5.07,10.31-9.86,15.47-14.8,3-2.82,6.22-5.75,8.5-9.18l2.07-3.42a17.59,17.59,0,0,0,1.94-7.41c.07-.5-1.75-2.18-2.23-2.12-22.91,2.63-46,3.49-68.8,7.47-7.68,1.34-16.42,2.27-23,6.85a17.07,17.07,0,0,0-7.4,13.54c-.52,8.3,3.26,16.09,5.94,23.7,1.78,5.08,3.4,10.2,5.14,15.29,1.34,3.91,2.91,8,6.78,10.07,3.12,1.64,6.75-.31,9-2.56,5.24-5.16,7.54-12.56,8.93-19.6a97.29,97.29,0,0,0,1.86-14.72c.16-4-.62-13.74-1-17.89-1.77-17.08-4.91-35.79-16-49.54a43.86,43.86,0,0,0-16.49-12.55c-5.79-2.6-12.25-3.66-18.53-4.16-9.1-.72-18.52.35-27.45,2-34.52,6.55-66.72,21.48-100.07,32a207.25,207.25,0,0,1-35.13,8c-7.62,1-15.38,1.45-23.07,1.73-15.5.57-31.08-.47-46.52-1.79-15.28-1.3-30.51-3.26-45.75-5-23.78-2.7-47.63-4.14-71.54-5.23C682,40.73,656.37,40,630.72,40c-30.93,0-62.07,1.29-92.74,5.45C485.3,52.63,433.7,65.83,381.17,73.86c-58.48,9-117.92,8.55-176.87,5.94-32.44-1.44-64.82-3.81-97.24-5.61-13-.71-25.94-1.43-38.92-1.92l-19.5-.66q-19.26-.78-38.53-.11C9.36,71.51,11.17,74.22,11.79,74.22Z"/>
      <path class="cls-2" d="M10,69.86c16.24.11,32.46.35,48.69.9s32.48,1.38,48.72,2.29c32.43,1.81,64.83,4.14,97.28,5.63s65.17,2.26,97.74,1.07a717.84,717.84,0,0,0,96.47-10c57.91-10,115.12-25.37,174-29.13,32.08-2.05,64.3-2.33,96.43-1.4q24.1.69,48.19,2c13.3.71,26.63,1.3,39.89,2.49,18.87,1.69,37.64,4.31,56.49,6.23,19.24,2,38.67,3.63,58,2.86,17.37-.69,34.65-2.84,51.32-7.92,9.45-2.87,18.77-6.16,28.06-9.5,20.83-7.5,41.55-15.53,63-21.14a176.63,176.63,0,0,1,29.37-5.36,86.54,86.54,0,0,1,13.47-.17,75,75,0,0,1,14.53,2.71l-.4-.13,4.79,1.81-.39-.15A47.46,47.46,0,0,1,1088.88,22a49.56,49.56,0,0,1,8.59,11.92C1104.08,46.41,1106.59,61,1108,75c.69,7,1.45,14.46.77,21.51-.35,3.63-.86,7.25-1.56,10.83a63.49,63.49,0,0,1-2.64,9.58,35.74,35.74,0,0,1-2.43,5.21,15,15,0,0,1-4.62,5.13l10.32-6.8-14,7.75,11.24-4.73-11.87,3.85,11.36-2.81L1087.69,123l11.41,2.72-13.26-7.37,7.94,5.59-9.59-8.55,6.62,6.73L1082.32,112l5.37,7.88a67.21,67.21,0,0,1-15.53-40.06l-.92,5.79,1.57-8.12-2.32,7.37,3.6-10.35L1070,83.4,1075.8,72l-5.29,8.18L1078,69.73l-6.48,7.43L1084,65.52l-9.19,5.94,11.49-6.76L1079.18,68,1098,61l4-.83c3.51-.7,7.06-1.25,10.6-1.77,6.91-1,13.84-1.76,20.79-2.41,12.34-1.15,24.71-2,37.05-3.17l-12-7.52,10.68,9.88-8.39-8.56,6.53,9.79-5.15-8.29L1166,64.94l-1.22-12.57-.92,14.51,1.37-11.12L1161.68,70l3.2-9.87L1159.2,73.2l4.7-9.09-7.38,12.48,4.82-6.71a145.34,145.34,0,0,1-14.75,18c-2.23,2.4-4.48,4.77-6.75,7.14q-5,5.25-10.13,10.46c-6.26,6.39-12.66,12.66-18.67,19.3a2.35,2.35,0,0,0,1.52-.11c1.82-.43,3.63-.89,5.43-1.4s3.61-1,5.4-1.55a2.36,2.36,0,0,0,1.36-.68,127.83,127.83,0,0,0,8.84-9.62c4.09-4.66,8.09-9.39,11.92-14.26,3.15-4,6.24-8.12,9-12.39q2.64-4.11,5.08-8.35,2.17-4.32,4-8.78L1157,76.94l9.2-11.67a25.8,25.8,0,0,0,2.61-4.45,17.91,17.91,0,0,0,1.61-8,2.4,2.4,0,0,0-1.12-1.08q-2.35-1.64-4.79-3.18c-1.61-1-3.23-2.06-4.88-3a2.47,2.47,0,0,0-1.44-.58,165.68,165.68,0,0,0-16.91,1.78c-6.88.9-13.76,1.94-20.57,3.27a156.72,156.72,0,0,0-20.9,5.39,77.31,77.31,0,0,0-14.14,6.11c-7.9,4.67-15,11.39-16.33,20.86a31.31,31.31,0,0,0,2.82,16.9,70,70,0,0,0,6.94,11.65,41.51,41.51,0,0,0,3.7,4.86,71,71,0,0,0,12.67,12.49,2.33,2.33,0,0,0,1.45-.43c1.67-.81,3.33-1.65,5-2.53s3.28-1.75,4.89-2.67a2.31,2.31,0,0,0,1.17-1c3.93-5.57,5.5-12.39,6.38-19.07,1.44-10.84.46-21.88-1.2-32.64-1.65-10.6-4.06-21.28-8.31-31.18-3.26-7.61-7.1-14.75-12.75-20.86a53.74,53.74,0,0,0-21.22-14C1057.4-.9,1042.29-.85,1028.4,1.77a363.76,363.76,0,0,0-42.59,10.79c-15.81,5-31.39,10.65-47.14,15.81-7.07,2.32-14.17,4.69-21.39,6.52a101.55,101.55,0,0,1-11.06,2.2,185,185,0,0,1-21.81,3.59c-26.65,2.87-53.65.8-80.23-1.82-15.29-1.51-30.56-3.42-45.87-4.71q-11.23-1-22.5-1.37Q716.39,31.7,697,30.9c-45.24-1.73-90.67-2.3-135.85,1.17-41,3.16-81.34,11.24-121.66,19-23,4.45-46.12,8.92-69.37,12.17a721.58,721.58,0,0,1-78.25,6.35c-45.5,1.37-91-.86-136.43-3.44-26-1.48-52-3.14-78.06-4.32C51.6,60.68,25.84,60.11.09,59.18A2.45,2.45,0,0,0,.92,60.5q1.89,2.18,3.87,4.28t4,4.17A2.43,2.43,0,0,0,10,69.86Z"/>
      <path class="cls-2" d="M9.89,68.07q48.75.39,97.39,3.19c29.18,1.68,58.35,3.65,87.54,5.13,32.54,1.65,65.1,2.62,97.67,1.82a745.47,745.47,0,0,0,88.67-7.32c29.28-4.23,58.25-10.65,87.25-16.42,28.71-5.71,57.63-11.31,86.81-14.08,60.28-5.73,121.12-3.44,181.46.11,8.72.51,17.41,1.08,26.1,1.91,9.36.89,18.69,2,28,3.07,19.19,2.23,38.45,4.59,57.76,5.28,17.32.62,34.64.25,51.78-2.49,13.16-2.1,25.69-5.8,38.27-10.1,20.11-6.89,39.91-14.7,60.2-21.08a249.89,249.89,0,0,1,30.43-7.88c3.83-.69,7.68-1.29,11.54-1.75A106.13,106.13,0,0,1,1057,7l-.39,0,5.42.54-.38,0c6.3,1.11,12.32,2.56,18,5.7a44.72,44.72,0,0,1,10.77,8.54c9.94,10.52,13.93,25.72,16.29,39.57q1.07,5.75,1.6,11.57.9,8.9,1.16,17.83a97.51,97.51,0,0,1-1.45,12.86c-1.36,7.87-3.43,16.77-10,22l9.92-5.37-13.66,6.43,10.94-3.38L1093.6,126l11.09-1.53-14.48-.77,11.28,2.07-15.11-6.48,9.55,5.55L1085.76,117l7.86,6.94-9.54-10,6.53,8.08-8.41-11.63,4.21,7.33-6.23-11.45q-2-4.16-3.77-8.43c-2.85-6.74-4.43-12.08-4-20.09l-1.71,10,2.4-12.12-3.27,10.76,4.62-13.7L1070,83l6.23-12.85-5.63,9.59L1078.48,68l-6.82,8.8,9.32-10.6-7.78,7.66,10.59-9.25-8.72,6.56,11.76-7.92-9.31,5.32L1090.14,62l-7.85,3.33,15.07-5.42,9-1.87c3.58-.64,7.17-1.16,10.77-1.65,6.91-.94,13.84-1.67,20.78-2.36l-.39,0c10.93-1,21.86-1.84,32.78-2.88l-11.77-5.85,8.85,7.08-6.69-5.78,2.93,4L1162,48.14l5.35,11.25-3.76-9.29,2.25,12L1164.52,52,1164,65.09l1.06-9.73L1162,68.17l2.9-8.66-5.28,12,4.42-7.89-7.5,12.12,1.66-2.31c-8.76,10.9-18.47,20.89-28.27,30.84-6.2,6.28-12.51,12.47-18.45,19a2.15,2.15,0,0,0,1.46.06c1.79-.23,3.57-.51,5.34-.81s3.55-.61,5.31-1a2.24,2.24,0,0,0,1.37-.53,88.66,88.66,0,0,0,6.17-6.54q4.28-4.78,8.41-9.69c5.89-7,11.73-14.21,16.53-22,1.31-2.12,2.7-4.24,3.86-6.45,1.51-2.87,2.66-6,3.94-9,1.09-2.5,3-4.5,4.22-6.92l1.38-2.86a16.56,16.56,0,0,0,.88-6.32,2.14,2.14,0,0,0-1.12-.92c-1.55-.86-3.12-1.7-4.71-2.5s-3.17-1.61-4.78-2.36a2.1,2.1,0,0,0-1.4-.38,189.77,189.77,0,0,0-19.14,2.09c-7.75,1.06-15.5,2.29-23.14,4a150.58,150.58,0,0,0-15.78,4.27,92.61,92.61,0,0,0-10.57,4.2l-3.88,2a48.63,48.63,0,0,0-5.64,4.91c-1.94,1.7-4.9,3.39-6.2,5.92-.85,1.67-1.56,3.43-2.3,5.15a47.45,47.45,0,0,0-2.32,5.76c-.64,2.34-.19,5.29.25,7.68a40.33,40.33,0,0,0,4.75,12.48c.91,1.61,1.93,3.2,2.92,4.75a80.27,80.27,0,0,0,10.29,12.58l-5.86-10.13a60.21,60.21,0,0,0,7.12,13,2.05,2.05,0,0,0,1.31.53q2.55.54,5.13,1c1.71.31,3.43.58,5.15.81a2,2,0,0,0,1.41-.06,26.76,26.76,0,0,0,9.72-10.89,44.42,44.42,0,0,0,1.67-5.89A76.51,76.51,0,0,0,1114.77,99c.9-9.71-.2-19.48-1.62-29.08A130.12,130.12,0,0,0,1105,39.05a74.27,74.27,0,0,0-9.08-16.47A54.28,54.28,0,0,0,1070.81,4,73.36,73.36,0,0,0,1045.47.18a108.62,108.62,0,0,0-11.11.69q-6,.88-11.88,2.21c-6,1.22-12,2.52-18,4.1-14.79,3.92-29.28,8.9-43.75,13.86-7.31,2.5-14.61,5-22,7.43-7.08,2.33-14.18,4.71-21.4,6.53a98.9,98.9,0,0,1-11.17,2.21l-10.81,2.11c-14.77,2.58-30,3-44.94,2.75-27.06-.5-54-4-80.86-6.73-11.26-1.13-22.45-1.9-33.76-2.47-25.87-1.31-51.74-2.59-77.65-3-44.12-.75-88.48.19-132.25,6.1-40.62,5.49-80.61,14.66-121,21.74-18.09,3.18-36.2,6.13-54.47,8.11a770.2,770.2,0,0,1-78.17,4.29c-42.27.25-84.48-1.93-126.67-4.39-22.76-1.33-45.53-2.72-68.31-3.75C51.6,60.77,25.79,60.2,0,59.3a2.11,2.11,0,0,0,.84,1.14C2.1,61.64,3.38,62.82,4.69,64s2.62,2.3,4,3.41A2,2,0,0,0,9.89,68.07Z"/>
      <path class="cls-2" d="M10.69,71.69c19.47.06,38.9.4,58.36,1.15,22.71.87,45.41,2.32,68.1,3.72,42.16,2.61,84.4,5.46,126.66,5.53,39.52.06,79-1.85,118.12-7.76C417.05,69,451.68,61,486.55,54.35c17.27-3.3,34.6-6.29,52-8.65q17.45-2.34,35-3.49l77.11-1.73c19.25.12,38.51,1,57.75,1.92,18.35.87,36.74,1.75,55,3.56,24.7,2.44,49.3,6.24,74.09,7.8,23,1.46,46.39,1.58,69.15-2.9C921.2,48,935.1,43,948.93,38c12.73-4.58,25.39-9.35,38.18-13.76,16.73-5.77,33.84-11,51.42-13.26,11-1.42,22.91-1.7,33.47,2.06a43.5,43.5,0,0,1,21.76,16.46c6.57,9.56,9.65,21.22,11.59,32.52a211.53,211.53,0,0,1,2.45,23.69,48.37,48.37,0,0,1-.07,12.89l-.47,3.66a83,83,0,0,1-2.55,12c-1.62,5.45-3.65,10.42-8.46,14.13l5.36-3.54-6.07,3.59,4.43-2.3-6.28,2.59,4.53-1.74-3.09.59,1.73-.23-6.14-2.09a39.05,39.05,0,0,1-10.13-15.72c-4.7-10-9.36-19.06-8.3-30.91l-.56,2.85,1.57-6.06-.93,2.75,2.18-4.89-1.45,2.55,3.36-5-1.83,2.31,4.17-4.39-2.21,2,4.86-3.72-2.52,1.67,9.42-4.62-3,1,10.07-2.8c2.66-.53,5.33-1,8-1.36,3.53-.55,7-1.06,10.6-1.47,7.44-.87,14.89-1.6,22.36-2.24,11.48-1,23-1.8,34.45-2.82l-6.19-4.15q3.15,22.36-16.19,35.54-3.54,3.64-7.13,7.24-6,6-11.95,12c-6.73,6.72-13.55,13.39-20,20.41-.74.81,2.36-.24,2-.12,1.17-.37,2.33-.77,3.47-1.19a6.44,6.44,0,0,0,1.75-.79c3.06-3,5.9-6.16,8.81-9.27,3.56-3.81,7.11-7.63,10.62-11.5,7.69-8.47,15.12-17.2,22.09-26.29l-2.74,3.33c2.43-2.51,4.87-5,7.21-7.59a40.89,40.89,0,0,0,6.09-8,31.61,31.61,0,0,0,1.55-3.28c1-2.62.82-3.61.89-6.32,0-.81-1.74-1.6-2.3-2-.75-.52-1.51-1-2.28-1.51a6.52,6.52,0,0,0-1.68-.91c-3.57.13-7.08.54-10.63.91-5.6.58-11.19,1.17-16.77,1.85A277.64,277.64,0,0,0,1098.11,60a92.79,92.79,0,0,0-13.76,4.84,27.77,27.77,0,0,0-6,3.45,19.45,19.45,0,0,0-6.27,8.65c-2.74,7.56-.09,15.59,2.8,22.68,1.55,3.79,3.38,7.36,4.88,11.16.93,2.38,1.83,4.8,2.8,7.17a66,66,0,0,0,2.86,6,12.35,12.35,0,0,0,2.94,4c.84.73,1.51,1.39,2.57,1.37,2.54-.06,3.87.47,5.68-.39a23.94,23.94,0,0,0,2.73-1.7,18.29,18.29,0,0,0,4.65-4.07,23.43,23.43,0,0,0,2.62-4.66,44.22,44.22,0,0,0,2.87-9c2.9-13.27,2.1-26.75.17-40.11a136,136,0,0,0-7-28.32c-3.12-8.34-7.89-16.66-14.63-22.63-9.93-8.81-22.66-12.78-35.81-13.07-11.61-.27-23,1.81-34.32,4.4C1003,13.19,988.46,18,974.09,23c-17.73,6.16-35.35,13-53.47,18l-3,.83-16.53,3.44a215.54,215.54,0,0,1-22.51,2.66,351.53,351.53,0,0,1-46.13-.49c-15.44-1.12-30.81-2.84-46.19-4.55-7.53-.83-15.06-1.72-22.6-2.42-10.64-1-21.29-1.55-32-2.14-60.48-3.36-121.46-5.32-181.85.64C520.66,41.81,491.76,47.38,463,53c-26,5.12-52,10.41-78.27,14.58-61.25,9.76-123.28,9.6-185.08,6.85-32.47-1.45-64.9-3.78-97.35-5.52-13-.7-26-1.39-39-1.86-19.27-.69-38.54-1-57.8-1.56a.92.92,0,0,0,.31.84q.95,1.27,2,2.49C8.27,69.39,9.72,71.69,10.69,71.69Z"/>
      <path class="cls-2" d="M12.92,69.84q19.36-.48,38.72.24l19.51.68c22.71.89,45.41,2.34,68.1,3.76,38.93,2.42,77.86,4.87,116.88,5.39,42.72.56,85.68-1.11,128-7.74,35.1-5.5,69.72-13.44,104.62-20.06,17.27-3.29,34.59-6.39,52-8.66,18-2.36,36.16-3.73,54.34-4.48,38.5-1.59,77-.6,115.51,1.32,16.49.82,33,1.65,49.44,3.09,11.18,1,22.31,2.41,33.45,3.74,25,3,50,5.85,75.18,5.52a229,229,0,0,0,34.48-2.91,177.14,177.14,0,0,0,26.09-6.43c13.81-4.51,27.39-9.66,41-14.65,12.52-4.59,25.08-9.17,37.9-12.9,11.65-3.4,23.55-6.42,35.67-7.49,13-1.15,27.2-.34,38.58,6.78q14.28,10.76,19.31,26.77l3.23,12.1a157.46,157.46,0,0,1,2.83,21.75c.55,7,1.18,14.26.22,21.27-.49,3.55-1.13,7.09-1.94,10.58a53.28,53.28,0,0,1-3.62,10.65c-1.92,4.06-4.31,7.67-9.47,8.21l.63,0a15,15,0,0,1-8.86-11.21,141.82,141.82,0,0,1-6.3-15.33q-1.39-4-3-7.95a34.39,34.39,0,0,1-2-17.21l-.61,2.86,1.53-5.32-1,2.76,2.62-5.59-1.37,2.62,6.67-6.87,27.89-7.57c3-.41,6.09-.68,9.14-1,6.72-.66,13.45-1.22,20.18-1.74,11.63-.91,23.29-1.54,34.89-2.74l-2.9-1.41a11.38,11.38,0,0,1,.29,5.4,7.83,7.83,0,0,1-1.91,5.23,59.51,59.51,0,0,1-4.92,6.49q-2.91,3.06-5.91,6.06-3.35,3.41-6.74,6.77c-2.89,2.78-5.8,5.55-8.7,8.32-6.87,6.56-13.62,13.25-20.4,19.91-4.62,4.55-9.23,9.12-13.55,14-.45.52,2.36.71,2.77.24,4.73-5.4,9.77-10.52,14.78-15.66,6.58-6.76,13.21-13.49,19.78-20.26,3-3.08,6-6.19,9.06-9.15s6.44-5.85,9.44-9a52,52,0,0,0,6.5-8,10.73,10.73,0,0,0,2.16-5.29,10.63,10.63,0,0,0,.41-3.74c.07-.73-2.38-1.66-2.91-1.61-13,1.41-26.11,2.29-39.16,3.54-11.55,1.12-23.07,2.62-34.49,4.7-7.68,1.39-16.63,3.32-21.45,10.11a21.46,21.46,0,0,0-3.41,9c-.82,5.06.56,10.34,2.26,15,1.82,5,4.13,9.86,6,14.87,1.16,3.11,2.14,6.27,3.24,9.39a25.2,25.2,0,0,0,2.4,5.5c1.28,2,3,4.09,5.38,4.71s5.31-.76,7.33-2.15,3.84-4.35,4.84-6.42a57.38,57.38,0,0,0,4.67-15.8c.4-2.41.77-4.86,1-7.29a69.6,69.6,0,0,0,.05-12.93c-.59-10.24-1.52-20.55-3.85-30.56-2.45-10.57-6.21-21.28-13.28-29.7a43.85,43.85,0,0,0-19.88-13.35c-11.87-3.95-25.13-3.58-37.35-1.71-16.75,2.56-33,7.63-49,13.09C967.18,27,948.6,34.31,929.64,40.56c-4,1.32-8,2.58-12.08,3.71a172.38,172.38,0,0,1-22.31,4.35c-15.19,2.17-30.7,2.19-46,1.65C815,49.07,781.12,43,747,40.44c-12.87-1-25.8-1.53-38.69-2.17-19.27-1-38.61-1.69-57.9-1.89-12.88-.13-25.75-.15-38.62.14-18.75.41-37.67,1.16-56.33,3.14-52.68,5.59-104.11,18.5-156.2,27.68a721.55,721.55,0,0,1-96.29,10c-32.52,1.32-65.18.49-97.68-1.06s-64.89-3.83-97.34-5.64c-13-.73-26-1.46-39-2L49.4,68q-19.15-.81-38.32-.08c-.59,0,.16.79.19.83C11.62,69.14,12.36,69.84,12.92,69.84Z"/>
      <path class="cls-2" d="M10.88,71.71c16.23.09,32.43.31,48.65.87S92,74,108.24,74.88c32.42,1.85,64.82,4.21,97.27,5.65s65.19,2.38,97.75,1a721.77,721.77,0,0,0,96.52-10.09C454.8,61.74,509.18,47.66,565,43c31.75-2.63,63.7-2.93,95.54-2.26,30.75.64,61.56,2,92.23,4.3,16.85,1.29,33.61,3.5,50.39,5.43,19.26,2.21,38.57,4,58,4.25,19,.24,38.57-1.41,57-6.39,10.47-2.83,20.73-6.55,30.93-10.22,20.89-7.54,41.66-15.79,63.13-21.55a202.76,202.76,0,0,1,26.73-5.5,97.59,97.59,0,0,1,13.88-.94,84.38,84.38,0,0,1,15.11,1.72l-.35-.09,5,1.4-.34-.11a55.06,55.06,0,0,1,12.28,6.31,43.66,43.66,0,0,1,9.69,10.06,60,60,0,0,1,7.11,14,107.61,107.61,0,0,1,5.29,22,216.58,216.58,0,0,1,2.2,24.65,32,32,0,0,1-.16,8.29q-.29,2.73-.72,5.45c-1.22,8-3.08,16.8-8.59,23l5.31-4.68-7,5.91,7-5.15-8.75,5.91,7.26-4.4-7.58,3.83,6-2.76-7.67,2.55,6.68-1.87-6.2.8,4.38-.4L1082.31,113l2.37,3.8c-6.07-11-14.56-26.16-11.38-39.52l-1.7,4.39,3.09-7.3-2.34,4.2,4.17-6.68-3.81,4.78,6.09-6.93L1074.17,74l7.24-6.08-4.19,2.87,7.14-4.41-4.74,2.3L1091,64a98.38,98.38,0,0,1,10.17-2.31c2.75-.51,5.52-.92,8.29-1.31,7.52-1.08,15.09-1.88,22.65-2.55,13.07-1.16,26.16-2,39.22-3.21l-9.74-6.52,7.34,7.74-5.21-6.08,3.61,6.64-2.38-4.81,2.77,10-1.77-7.35.4,10.23,0-7.58-1.12,5.94.57-2.44L1159.67,74l3-5.64L1156,78.74l4.58-6.62L1153,82.05l4.1-4.84c-5.82,6.61-11.72,13-17.88,19.31q-5.06,5.16-10.14,10.31c-6.15,6.23-12.39,12.39-18.3,18.85-.87.95,3-.55,2.56-.39q2.31-.81,4.59-1.71a10.93,10.93,0,0,0,2.31-1c3.12-3,6-6.24,8.86-9.42s6-6.64,9-10c3.25-3.73,6.45-7.52,9.54-11.39a220.09,220.09,0,0,0,13.52-19.24l-4.58,6.62a128.9,128.9,0,0,0,10.21-11.8,31.7,31.7,0,0,0,3.57-6.15,14.83,14.83,0,0,0,1-6.56,1.79,1.79,0,0,0-.87-1q-1.89-1.43-3.86-2.76t-4-2.64a1.81,1.81,0,0,0-1.21-.47c-6.26.09-12.56,1.09-18.77,1.84-7.6.93-15.18,2-22.71,3.43A174.69,174.69,0,0,0,1098,58.4c-6.77,2.18-13.56,5.05-19.12,9.56a22.44,22.44,0,0,0-7.45,10.41c-2,6.18-.86,12.57,1.46,18.5,2.8,7.15,7.29,13.46,10.47,20.42,1.07,2.35,2.22,4.68,3.49,6.92,2.53,4.46,2.24,2.58,10,4.89a1.52,1.52,0,0,0,1.1-.44q1.29-.85,2.52-1.77c1-.74,2.06-1.5,3.08-2.28a11.93,11.93,0,0,0,2-1.72c4-5.87,5.81-12.77,6.77-19.77,1.69-12.4.44-25.08-1.67-37.34-2.62-15.16-7.13-31.29-17-43.46a50.6,50.6,0,0,0-19.87-14.86c-9.59-4-20.16-5-30.46-4.52a118.34,118.34,0,0,0-17.47,2.48c-8.09,1.57-16.09,3.38-24,5.65C988.07,15,974.54,19.68,961,24.38c-14.36,5-28.75,10.39-43.51,14.06a67.13,67.13,0,0,1-8.3,1.71,186.14,186.14,0,0,1-22,3.75,277.27,277.27,0,0,1-34.09,1.42c-27-.28-53.93-4-80.79-6.78-17.67-1.83-35.36-2.76-53.11-3.63-19.35-.95-38.71-1.76-58.09-2.13-44-.85-88.32-.06-132,5.8C488.46,44.05,448.4,53.24,408,60.51c-18.15,3.26-36.34,6.15-54.65,8.27a753.33,753.33,0,0,1-78.32,4.43c-45.53.47-91-2.26-136.43-4.94-19.5-1.15-39-2.33-58.5-3.23C54.41,63.84,28.69,63.32,3,62.44a1.8,1.8,0,0,0,.6,1.17q1.49,1.89,3.06,3.71t3.18,3.61A1.83,1.83,0,0,0,10.88,71.71Z"/>
      <path class="cls-2" d="M9.77,68.89q48.77.38,97.39,3.19c32.43,1.83,64.84,4.19,97.29,5.63,29.3,1.3,58.61,2,87.93,1.32a710.5,710.5,0,0,0,97.47-8.79c55.2-9,109.5-23.18,165.22-29.08,15.45-1.64,31-2.32,46.55-2.82q24.07-.78,48.18-.47c16.06.2,32.12.74,48.16,1.44s32.21,1.42,48.27,2.57c36.08,2.58,71.84,8.94,108,9.87,19.19.49,38.39-.58,57.16-4.84a283.22,283.22,0,0,0,30.15-9.07c21.08-7.3,41.83-15.65,63.26-21.91A233.92,233.92,0,0,1,1032,9.47a131.52,131.52,0,0,1,14.26-1.74,97.87,97.87,0,0,1,15.69.56l-.39-.07,5.25,1-.39-.09,5,1.34-.39-.11c5.83,2.17,11.36,4.69,16,9a50.23,50.23,0,0,1,9.08,11.19c7.06,11.84,9.82,25.92,11.45,39.42q.84,6.24,1.17,12.53a52.7,52.7,0,0,1,.13,13c-.36,3.64-.81,7.28-1.53,10.87a64.07,64.07,0,0,1-2.63,9.63,22.45,22.45,0,0,1-7.07,10.47l10.32-6.11-14,7.11,11.31-4.07-12,3.3,11.44-2.18-17.12-2.12,11.58,3.46-14.37-8.65,9,6.83-9.72-9.3,6.72,7.45-8.6-10.92,5.45,8.61a104.7,104.7,0,0,1-13.33-26.08,30.7,30.7,0,0,1-2.07-14.89l-1.49,9.28,2.16-11.52-3,10,4.32-13L1070,83.26,1078.62,68l-7.08,9,9-10-7.5,7,10.3-8.66-8.46,6L1086.4,64l-9.07,4.72,12.38-6-7.66,2.87a109.31,109.31,0,0,1,24-6.87q3.2-.57,6.42-1c5.35-.79,10.73-1.43,16.11-2l-.39,0c14-1.41,28-2.41,42-3.75l-11.76-6.66,10.47,9.08-8.24-7.79,4.67,6.65L1162,48.08l3.93,15.84-1.25-11.79-.82,13.81,1.34-10.45-3.45,13.56,3.17-9.29-5.6,12.55,4.69-8.5a90.67,90.67,0,0,1-14,19.72q-3.29,3.6-6.63,7.14-6,6.38-12.18,12.61c-6.75,6.86-13.65,13.59-20.11,20.72a2.37,2.37,0,0,0,1.51,0q2.76-.51,5.49-1.11t5.46-1.27a2.33,2.33,0,0,0,1.39-.61,151.66,151.66,0,0,0,11.64-12.79c5.33-6.19,10.53-12.53,15.24-19.21,1.91-2.71,3.73-5.46,5.45-8.29A110.6,110.6,0,0,0,1163,69.4a16.41,16.41,0,0,1,3.06-5.17l1.82-3,1.4-2.9a16.23,16.23,0,0,0,.84-6.41,2.34,2.34,0,0,0-1.11-1c-1.54-1-3.11-1.92-4.69-2.83s-3.17-1.83-4.78-2.7a2.19,2.19,0,0,0-1.4-.47,180.58,180.58,0,0,0-19.11,2.07c-7,1-13.9,2.06-20.78,3.5a158,158,0,0,0-20.39,5.56,69,69,0,0,0-12.26,5.46,44.39,44.39,0,0,0-6.73,4.63,19.71,19.71,0,0,0-2.52,3.28,17.75,17.75,0,0,0-2.52,3.45A65.36,65.36,0,0,0,1069.42,83c-.68,2-.36,4.28-.09,6.29a35.08,35.08,0,0,0,2.81,9.91,76.53,76.53,0,0,0,5.18,9.17,39.15,39.15,0,0,0,5.21,7,16.77,16.77,0,0,0,4.38,4.1l-2.35-2.07,9,10.27a2.29,2.29,0,0,0,1.47-.2c1.74-.54,3.46-1.11,5.18-1.72s3.44-1.22,5.13-1.88a2.16,2.16,0,0,0,1.27-.76,22.82,22.82,0,0,0,2.66-3.31,32.93,32.93,0,0,0,2.21-4.74,57.77,57.77,0,0,0,2.87-12.51c1.43-10.85.44-21.9-1.24-32.66-3.12-20-9.3-41.84-25-55.75C1072-.17,1048.81-2,1028.37,1.77a363,363,0,0,0-42.57,10.8c-15.8,5-31.39,10.65-47.14,15.82-7.07,2.32-14.17,4.69-21.39,6.51a102.26,102.26,0,0,1-11.1,2.2,185,185,0,0,1-21.81,3.58c-26.66,2.87-53.65.79-80.23-1.83-15.3-1.51-30.56-3.41-45.88-4.71q-11.22-.95-22.47-1.37-19.42-1.08-38.86-1.87c-45.24-1.74-90.67-2.3-135.85,1.18-41,3.16-81.34,11.25-121.66,19-23,4.44-46.12,8.91-69.37,12.16a718.83,718.83,0,0,1-78.25,6.33c-45.5,1.37-91-.86-136.43-3.44-26-1.48-52-3.14-78.06-4.32C51.55,60.67,25.77,60.1,0,59.18a2.2,2.2,0,0,0,.81,1.23q1.86,2,3.8,3.89t3.92,3.78A2.2,2.2,0,0,0,9.77,68.89Z"/>
      <path class="cls-2" d="M11.29,70.87Q60,71.17,108.64,74c29.18,1.68,58.35,3.67,87.54,5.15,32.54,1.65,65.1,2.61,97.68,1.8a746.25,746.25,0,0,0,88.71-7.4c29.29-4.28,58.26-10.74,87.27-16.54,28.71-5.73,57.63-11.34,86.81-14.09,60.27-5.68,121.09-3.31,181.41.29,8.71.51,17.4,1.09,26.09,1.94,9.35.92,18.67,2,28,3.12,19.18,2.25,38.44,4.62,57.75,5.3,17.34.61,34.68.2,51.83-2.59a176.06,176.06,0,0,0,22.79-5.21c5.22-1.58,10.39-3.33,15.54-5.12,20.1-7,39.9-14.84,60.21-21.22a240.46,240.46,0,0,1,30.43-7.84c3.83-.68,7.68-1.26,11.55-1.7a103.35,103.35,0,0,1,16.22-.36l-.34,0,5.37.59-.34,0A60,60,0,0,1,1076.93,14a41.07,41.07,0,0,1,11.41,7.49c13.47,12.94,17.62,32.91,19.58,50.7q.76,6.22,1,12.47l.35,9.21a79.24,79.24,0,0,1-1.32,11c-1.4,8-3.4,15.75-8.91,22l3.45-3.08-4.57,3.74,6.2-4.25-8,5,6.45-3.57-7,3.17,5.33-2.15-7,2,5.27-1.26-5,.34,3.92-.08-3.73-.6,1.92.41-12-10.64,2.71,3.51-5.17-8.11,2.21,3.89a73,73,0,0,1-10.32-38.71L1071.89,81l3.27-7.58-2.49,4.49,4.36-7-4,5.13,6.33-7.26-4.82,4.61,7.45-6.39-5.48,3.9,8.44-5.41-4.85,2.57,15.08-5.9,8.54-1.7c2.78-.47,5.59-.86,8.38-1.24,6.7-.9,13.42-1.61,20.14-2.23,13.16-1.22,26.34-2.08,39.5-3.29l-9.48-5.58,5.4,5.38-3.34-3.63,2.27,4.12-1.11-2.21,1.35,4.95-.48-2.24.16,5,.08-2.26-9.4,19.55,3.21-4.38a167.82,167.82,0,0,1-13.51,15.78q-3.62,3.76-7.27,7.49-5.05,5.18-10.15,10.31c-6.15,6.22-12.38,12.39-18.3,18.83-.81.87,2.7-.31,2.3-.19,1.38-.43,2.75-.88,4.12-1.35a9.28,9.28,0,0,0,2.08-.88c3.1-2.94,5.92-6.19,8.81-9.34s6-6.59,9-9.94A274.47,274.47,0,0,0,1160.11,74l-3.21,4.39a133.09,133.09,0,0,0,10.27-12,33.52,33.52,0,0,0,3.56-6.1,15.51,15.51,0,0,0,1-6.5,1.55,1.55,0,0,0-.85-.87q-1.86-1.24-3.78-2.39c-1.26-.79-2.55-1.54-3.85-2.26a1.57,1.57,0,0,0-1.16-.36c-5.59.1-11.15.93-16.7,1.57-6.75.78-13.5,1.66-20.22,2.77-11.6,1.91-23.59,4.18-34.44,8.86A47.06,47.06,0,0,0,1078,68.63c-1.51,1.34-3.58,4.54-5,6.57a8.87,8.87,0,0,0-1.21,2.66c-1.79,5.28-1.25,10.92.43,16.17a67.85,67.85,0,0,0,5.52,11.85c2,3.6,4.11,7.07,6.35,10.52l-2.72-4.93a117,117,0,0,0,5.92,12.25c2.53,4.22,3.42,2.72,10.07,4.52,1,.26,2.49-1.27,3.22-1.76.92-.61,1.83-1.24,2.73-1.88a9.32,9.32,0,0,0,1.79-1.45c4.15-5.74,6-12.61,7-19.53,1.81-12.38.64-25-1.39-37.24-2.51-15.17-6.89-31.31-16.62-43.56a51.38,51.38,0,0,0-29-18,82.11,82.11,0,0,0-23.82-1.5c-6.9.46-13.75,2-20.51,3.34-6.11,1.26-12.14,2.83-18.14,4.5-14.86,4.15-29.42,9.36-44,14.44-7.32,2.56-14.64,5.11-22,7.53a213.23,213.23,0,0,1-21.3,6.31c-9.07,2-18.22,3.67-27.44,4.8-15.1,1.86-30.49,1.78-45.66,1.09-25-1.14-49.94-4.48-74.87-7-15.76-1.6-31.59-2.32-47.41-3.12q-29-1.47-58.09-2.16c-44-1-88.3-.11-132,5.75-40.7,5.46-80.76,14.67-121.14,22-21.4,3.87-42.82,7.17-64.47,9.25-22.79,2.19-45.63,3.28-68.52,3.52-45.53.49-91-2.24-136.44-4.93-19.49-1.15-39-2.34-58.49-3.25C55,64.12,29.26,63.61,3.51,62.77a1.54,1.54,0,0,0,.6,1q1.47,1.67,3,3.26t3.14,3.15A1.57,1.57,0,0,0,11.29,70.87Z"/>
      <path class="cls-2" d="M12.4,74.76c9.75-.05,19.48-.1,29.23.11s19.51.49,29.26.89c22.7.93,45.39,2.34,68.06,3.75,42.17,2.62,84.39,5.34,126.66,5.51,42.57.18,85.11-2.36,127.14-9.32C430.68,69.42,468.11,60.56,506,53.87c17.3-3.07,34.7-5.63,52.18-7.45,21.79-2.28,43.84-2.89,65.74-3.11,19.22-.2,38.43.12,57.64.79,22.47.78,45,1.76,67.4,3.41,49.25,3.62,98.79,14.88,148.29,8.14A162.2,162.2,0,0,0,920,51.13c5.22-1.51,10.38-3.24,15.52-5,13.82-4.73,27.46-10,41.2-14.92,13.42-4.85,26.93-9.52,40.75-13.09,12.18-3.14,24.65-5.45,37.27-5.3a61.11,61.11,0,0,1,17.15,2.58l2.23.69,15,9.31a42,42,0,0,1,4.45,5.33c8,11,11,24.94,12.75,38.16A232.85,232.85,0,0,1,1108,93.52a47.15,47.15,0,0,1-.37,8.27q-.39,2.71-.89,5.41a80.79,80.79,0,0,1-2.46,10.07,37.21,37.21,0,0,1-1.64,4.46l-6.24,8.1a4.25,4.25,0,0,1-3.84.41l-1.88-.27-1.92-1.33a14.32,14.32,0,0,1-3.3-4.31,34.24,34.24,0,0,1-1.93-4.79c-.82-2.41-1.75-4.79-2.56-7.21-.71-2.12-1.48-4.22-2.23-6.33l-1.71-5,13.47-35.74a42,42,0,0,1,7.4-1.43c2.64-.43,5.32-.75,8-1.07,22.44-2.68,45-3.27,67.5-5.58L1171.16,55a12.3,12.3,0,0,1-.63,5.33,15.66,15.66,0,0,1-2.06,5.13c-2,3.58-4.88,6.63-7.66,9.59-5.91,6.29-12.08,12.36-18.29,18.35q-9.62,9.27-19.11,18.65c-5.17,5.09-10.37,10.15-15.2,15.57-.72.8,1.48.39,1.8,0,4.84-5.47,10-10.59,15.19-15.77,6-6.08,12.06-12.21,18.18-18.23,5.78-5.7,11.77-11.18,17.65-16.78,3-2.85,6.19-5.69,8.52-9.15l2.08-3.4a18,18,0,0,0,2-7.42c.07-.5-1.74-2.21-2.22-2.15-22.9,2.54-46,3.49-68.76,7.42-10.82,1.86-26.62,3.42-30,16.3-1.48,5.7-.21,12,1.59,17.44.86,2.62,2,5.15,2.88,7.76,1,3,2.08,5.89,3.06,8.85.81,2.46,1.7,4.89,2.48,7.35a38.09,38.09,0,0,0,2.92,7.37c1,1.84,3.36,4.39,5.54,4.88a8,8,0,0,0,5.92-1.44c3.1-2.09,5.44-5.9,6.89-9.21a59.67,59.67,0,0,0,3.82-12.8c.47-2.42.83-4.86,1.15-7.3l.24-1.88a31.54,31.54,0,0,0,.21-8.46,217,217,0,0,0-2.78-28.67,119.66,119.66,0,0,0-3-13A68.42,68.42,0,0,0,1097,33.78c-4.87-8.14-11.7-15.1-20.55-18.81-12.81-5.36-26.87-5.09-40.41-3.25-16.66,2.26-32.93,7.56-48.79,13-19.08,6.49-37.84,13.88-57,20a198.17,198.17,0,0,1-40.65,8.62c-7.7.78-15.4,1.16-23.14,1.24A437.76,437.76,0,0,1,820,52.2c-13.35-1.29-26.65-2.92-40-4.43-23.78-2.71-47.63-4.16-71.54-5.26C651.92,39.9,595,38.9,538.69,46c-26.18,3.31-52.14,8.57-78,13.78C434.55,65,408.41,70.38,382,74.43c-61.69,9.46-124.47,8.62-186.62,5.49-29.19-1.47-58.34-3.5-87.51-5.12C94.93,74.08,82,73.37,69,72.87l-19.5-.67q-19.39-.74-38.8-.18C9.94,72,11.76,74.76,12.4,74.76Z"/>
    </g>
  </g>
</svg>
